<svg width="605" height="434" viewBox="0 0 605 434" fill="none" xmlns="http://www.w3.org/2000/svg">
<path d="M603.42 361.881H1.57963C1.16069 361.881 0.758926 361.746 0.462687 361.504C0.166448 361.263 0 360.935 0 360.593C0 360.252 0.166448 359.924 0.462687 359.683C0.758926 359.441 1.16069 359.306 1.57963 359.306H603.42C603.839 359.306 604.241 359.441 604.537 359.683C604.834 359.924 605 360.252 605 360.593C605 360.935 604.834 361.263 604.537 361.504C604.241 361.746 603.839 361.881 603.42 361.881Z" fill="#3F3D56"/>
<path d="M275.037 385.062L273.893 366.897L348.893 354.154L350.583 380.967L275.037 385.062Z" fill="#FFB8B8"/>
<path d="M277.726 353.98L279.895 387.428L256.399 388.667L252.866 334.158C255.951 333.996 259.042 334.379 261.961 335.288C264.88 336.196 267.571 337.61 269.879 339.451C272.188 341.292 274.069 343.522 275.416 346.015C276.762 348.508 277.547 351.214 277.726 353.98Z" fill="#293347"/>
<path d="M306.76 384.045L294.328 397.942L230.07 360.499L248.418 339.989L306.76 384.045Z" fill="#FFB8B8"/>
<path d="M280.997 404.127L304.733 378.087L322.915 391.563L284.235 434C281.847 432.23 279.87 430.054 278.415 427.595C276.96 425.136 276.056 422.442 275.755 419.668C275.455 416.894 275.763 414.094 276.662 411.428C277.562 408.761 279.035 406.281 280.997 404.127V404.127Z" fill="#293347"/>
<path d="M271.559 321.377L263.074 357.556C262.879 358.389 262.89 359.251 263.106 360.08C263.323 360.909 263.739 361.684 264.326 362.35C264.913 363.016 265.655 363.556 266.5 363.932C267.345 364.308 268.271 364.51 269.212 364.524L352.62 365.741C353.56 365.754 354.492 365.58 355.349 365.23C356.206 364.88 356.967 364.362 357.577 363.715C358.187 363.068 358.632 362.307 358.879 361.486C359.126 360.665 359.169 359.806 359.005 358.968L351.71 321.571C351.449 320.236 350.677 319.025 349.528 318.154C348.379 317.282 346.927 316.804 345.427 316.804H277.799C276.337 316.804 274.92 317.258 273.784 318.09C272.648 318.923 271.862 320.083 271.559 321.377V321.377Z" fill="#2F2E41"/>
<path d="M284.526 334.773C284.526 334.773 204.018 289.492 188.233 313.547C180.34 325.575 184.286 337.249 190.206 345.916C195.699 353.807 203.585 360.134 212.941 364.157L278.212 392.789L301.891 370.148L286.105 357.413L284.526 334.773Z" fill="#CCCCCC"/>
<path d="M328.839 326.704C328.839 326.704 432.927 298.929 412.425 351.556C391.923 404.184 314.645 383.718 314.645 383.718L306.76 361.789L333.57 344.247L328.839 326.704Z" fill="#CCCCCC"/>
<path d="M288.284 338.992C289.087 337.057 290.37 335.297 292.041 333.838C293.713 332.378 295.733 331.255 297.959 330.546C300.185 329.837 302.564 329.561 304.927 329.736C307.289 329.91 309.579 330.533 311.635 331.558L355.167 298.777L359.106 324.539L317.163 351.719C314.948 354.6 311.591 356.677 307.729 357.555C303.867 358.433 299.768 358.052 296.208 356.483C292.648 354.915 289.876 352.268 288.415 349.044C286.955 345.82 286.908 342.244 288.284 338.992V338.992Z" fill="#FFB8B8"/>
<path d="M324.338 342.564C323.689 342.564 323.044 342.47 322.422 342.285C321.414 341.992 320.49 341.464 319.728 340.744C318.967 340.024 318.39 339.133 318.046 338.145L313.233 324.583C312.783 323.329 312.726 321.969 313.069 320.683C313.413 319.396 314.141 318.244 315.157 317.378L369.48 284.937L348.066 189.908L348.611 189.777C348.832 189.723 370.773 184.756 379.763 208.604C386.059 225.307 409.358 261.625 407.715 286.167C407.402 291.076 405.436 295.737 402.133 299.398C398.83 303.058 394.383 305.504 389.51 306.341L328.362 341.191C327.21 342.079 325.795 342.562 324.338 342.564Z" fill="#293347"/>
<path d="M335.009 336.002C334.233 334.025 332.994 332.227 331.379 330.736C329.764 329.245 327.813 328.097 325.662 327.373C323.511 326.648 321.214 326.366 318.931 326.544C316.648 326.723 314.436 327.359 312.45 328.407L270.393 294.913L266.588 321.235L307.109 349.005C309.249 351.95 312.492 354.072 316.223 354.969C319.954 355.866 323.915 355.476 327.354 353.874C330.793 352.271 333.472 349.566 334.882 346.273C336.293 342.979 336.338 339.325 335.009 336.002V336.002Z" fill="#FFB8B8"/>
<path d="M295.923 337.413C294.549 337.411 293.214 336.944 292.127 336.086L230.268 305.248C225.671 304.439 221.476 302.075 218.361 298.538C215.245 295 213.39 290.496 213.095 285.752C211.545 262.035 237.703 224.098 243.642 207.957C252.122 184.91 272.818 189.708 273.027 189.762L273.541 189.889L249.161 284.563L304.583 313.074C305.542 313.91 306.229 315.024 306.553 316.267C306.877 317.51 306.823 318.825 306.398 320.036L301.858 333.143C301.534 334.097 300.99 334.958 300.271 335.654C299.553 336.35 298.682 336.86 297.73 337.143C297.144 337.321 296.535 337.413 295.923 337.413Z" fill="#293347"/>
<path d="M380.969 361.882H241.073C238.156 361.878 235.36 360.822 233.297 358.944C231.234 357.067 230.074 354.521 230.07 351.865V281.75C230.074 279.094 231.234 276.548 233.297 274.671C235.36 272.793 238.156 271.736 241.073 271.733H380.969C383.886 271.736 386.683 272.793 388.745 274.671C390.808 276.548 391.968 279.094 391.972 281.75V351.865C391.968 354.521 390.808 357.067 388.745 358.944C386.682 360.822 383.886 361.878 380.969 361.882Z" fill="#6C63FF"/>
<path d="M312.24 325.821C317.954 325.821 322.587 321.785 322.587 316.806C322.587 311.827 317.954 307.791 312.24 307.791C306.525 307.791 301.893 311.827 301.893 316.806C301.893 321.785 306.525 325.821 312.24 325.821Z" fill="white"/>
<path d="M51.0854 346.693C53.0668 327.611 58.5395 308.95 67.2848 291.454C69.7222 286.585 72.4049 281.823 75.3329 277.169C75.4798 276.926 75.5152 276.641 75.4317 276.374C75.3481 276.108 75.1521 275.881 74.885 275.742C74.618 275.602 74.3008 275.561 74.0003 275.626C73.6998 275.692 73.4395 275.859 73.2744 276.093C62.6262 293.046 55.1664 311.449 51.1934 330.565C50.0882 335.904 49.2575 341.28 48.7013 346.693C48.56 348.059 50.945 348.05 51.0854 346.693V346.693Z" fill="#E6E6E6"/>
<path d="M80.9487 279.457C89.3525 279.457 96.165 273.402 96.165 265.934C96.165 258.466 89.3525 252.412 80.9487 252.412C72.545 252.412 65.7324 258.466 65.7324 265.934C65.7324 273.402 72.545 279.457 80.9487 279.457Z" fill="#38F99C"/>
<path d="M52.6459 347.038C53.9069 334.43 57.3895 322.1 62.9547 310.54C64.5058 307.323 66.213 304.177 68.0763 301.102C68.1697 300.941 68.1922 300.753 68.139 300.577C68.0858 300.401 67.9611 300.251 67.7912 300.159C67.6213 300.067 67.4194 300.039 67.2282 300.083C67.037 300.126 66.8714 300.236 66.7663 300.391C59.9902 311.592 55.243 323.751 52.7146 336.381C52.0113 339.909 51.4827 343.461 51.1288 347.038C51.0389 347.94 52.5566 347.934 52.646 347.038H52.6459Z" fill="#E6E6E6"/>
<path d="M72.4325 305.214C77.4747 305.214 81.5623 300.89 81.5623 295.555C81.5623 290.221 77.4747 285.896 72.4325 285.896C67.3903 285.896 63.3027 290.221 63.3027 295.555C63.3027 300.89 67.3903 305.214 72.4325 305.214Z" fill="#38F99C"/>
<path d="M51.0001 346.563C43.7994 335.997 38.493 324.391 35.2929 312.208C34.4041 308.816 33.6818 305.391 33.1258 301.934C33.0937 301.755 32.989 301.595 32.8339 301.488C32.6788 301.38 32.4853 301.334 32.2944 301.358C32.1035 301.382 31.93 301.475 31.8105 301.617C31.6911 301.759 31.6349 301.939 31.6541 302.119C33.6872 314.707 37.907 326.896 44.1446 338.197C45.8886 341.351 47.7836 344.426 49.8295 347.421C50.345 348.177 51.5124 347.314 51.0001 346.563V346.563Z" fill="#E6E6E6"/>
<path d="M31.651 302.639C37.7017 302.639 42.6068 298.603 42.6068 293.624C42.6068 288.645 37.7017 284.609 31.651 284.609C25.6004 284.609 20.6953 288.645 20.6953 293.624C20.6953 298.603 25.6004 302.639 31.651 302.639Z" fill="#38F99C"/>
<path d="M20.6953 352.958V336.032C20.6975 334.349 21.4625 332.736 22.8225 331.546C24.1825 330.356 26.0264 329.686 27.9498 329.685H73.0887C75.0121 329.686 76.856 330.356 78.216 331.546C79.576 332.736 80.341 334.349 80.3432 336.032V352.958C80.341 354.64 79.576 356.254 78.216 357.444C76.856 358.633 75.0121 359.303 73.0887 359.305H27.9498C26.0264 359.303 24.1825 358.633 22.8225 357.444C21.4625 356.254 20.6975 354.64 20.6953 352.958V352.958Z" fill="#F2F2F2"/>
<path d="M497.877 373.175C497.877 383.118 489.429 387.638 479.009 387.638C468.588 387.638 460.141 383.118 460.141 373.175C460.141 363.231 464.334 351.629 479.009 355.63C493.684 349.628 497.877 363.231 497.877 373.175Z" fill="#FF6584"/>
<path d="M477.68 360.593C476.917 360.594 476.18 360.341 475.607 359.881C475.033 359.421 474.663 358.785 474.565 358.093C473.915 353.151 470.335 343.47 468.826 339.538L468.826 339.536C468.673 339.145 468.626 338.726 468.689 338.316C468.753 337.905 468.924 337.514 469.189 337.177C469.442 336.875 469.761 336.626 470.127 336.446C470.493 336.266 470.897 336.158 471.311 336.131C471.725 336.104 472.142 336.157 472.532 336.287C472.922 336.417 473.278 336.622 473.576 336.887C473.842 337.142 474.047 337.444 474.18 337.775C474.313 338.106 474.37 338.458 474.347 338.81C474.052 343.857 478.075 352.012 480.5 356.425C480.729 356.841 480.844 357.302 480.835 357.768C480.826 358.233 480.693 358.69 480.449 359.098C480.204 359.507 479.854 359.855 479.43 360.112C479.006 360.37 478.519 360.529 478.013 360.577C477.902 360.588 477.791 360.593 477.68 360.593V360.593Z" fill="#3F3D56"/>
<path d="M492.309 349.979C499.194 344.853 493.792 334.364 485.175 336.377C484.015 336.629 482.946 337.148 482.07 337.884C476.784 342.425 475.965 354.046 475.965 354.046C475.965 354.046 485.3 355.196 492.309 349.979Z" fill="#3F3D56"/>
<g clip-path="url(#clip0)">
<mask id="mask0" mask-type="alpha" maskUnits="userSpaceOnUse" x="206" y="-18" width="210" height="290">
<path d="M206.656 147.905V-17.1982H415.916V147.905H406.404C406.404 216.293 363.818 271.732 311.286 271.732C258.754 271.732 216.168 216.293 216.168 147.905H206.656Z" fill="white"/>
</mask>
<g mask="url(#mask0)">
<mask id="mask1" mask-type="alpha" maskUnits="userSpaceOnUse" x="232" y="19" width="159" height="253">
<path d="M311.286 19.9502C335.801 19.9502 355.675 45.8219 355.675 77.7363L355.676 84.0991C360.174 85.0821 363.601 90.1752 363.601 96.3105V110.757C363.601 117.002 360.05 122.168 355.432 123.017C353.794 143.454 343.974 160.723 330.311 169.173L330.31 188.149H333.481C365 188.149 390.551 221.413 390.551 262.446V271.733H232.021V262.446C232.021 221.413 257.573 188.149 289.092 188.149H292.263L292.263 169.174C278.6 160.724 268.778 143.455 267.14 123.017C262.523 122.168 258.972 117.002 258.972 110.757V96.3105C258.972 90.1748 262.399 85.0814 266.898 84.0989L266.898 77.7363C266.898 45.8219 286.771 19.9502 311.286 19.9502Z" fill="white"/>
</mask>
<g mask="url(#mask1)">
<path d="M311.286 19.9502C335.801 19.9502 355.675 45.8219 355.675 77.7363L355.676 84.0991C360.174 85.0821 363.601 90.1752 363.601 96.3105V110.757C363.601 117.002 360.05 122.168 355.432 123.017C353.794 143.454 343.974 160.723 330.311 169.173L330.31 188.149H333.481C365 188.149 390.551 221.413 390.551 262.446V271.733H232.021V262.446C232.021 221.413 257.573 188.149 289.092 188.149H292.263L292.263 169.174C278.6 160.724 268.778 143.455 267.14 123.017C262.523 122.168 258.972 117.002 258.972 110.757V96.3105C258.972 90.1748 262.399 85.0814 266.898 84.0989L266.898 77.7363C266.898 45.8219 286.771 19.9502 311.286 19.9502Z" fill="#D0C6AC"/>
<path d="M416.606 19.9502H206.656V272.598H416.606V19.9502Z" fill="#FFDBB4"/>
<path fill-rule="evenodd" clip-rule="evenodd" d="M266.898 116.948C266.898 148.863 286.772 174.734 311.287 174.734C335.802 174.734 355.675 148.863 355.675 116.948V125.203C355.675 157.118 335.802 182.99 311.287 182.99C286.772 182.99 266.898 157.118 266.898 125.203V116.948Z" fill="black" fill-opacity="0.1"/>
</g>
<mask id="mask2" mask-type="alpha" maskUnits="userSpaceOnUse" x="296" y="134" width="31" height="21">
<path d="M296.319 136.687C297.157 146.482 303.538 154.097 311.286 154.097C319.057 154.097 325.453 146.435 326.26 136.596C326.325 135.805 325.646 134.491 324.795 134.491C312.989 134.491 303.944 134.491 297.879 134.491C297.023 134.491 296.235 135.707 296.319 136.687Z" fill="white"/>
</mask>
<g mask="url(#mask2)">
<path d="M296.319 136.687C297.157 146.482 303.538 154.097 311.286 154.097C319.057 154.097 325.453 146.435 326.26 136.596C326.325 135.805 325.646 134.491 324.795 134.491C312.989 134.491 303.944 134.491 297.879 134.491C297.023 134.491 296.235 135.707 296.319 136.687Z" fill="black" fill-opacity="0.7"/>
<path fill-rule="evenodd" clip-rule="evenodd" d="M303.36 123.141H320.005C322.194 123.141 323.969 125.451 323.969 128.3V134.491C323.969 137.341 322.194 139.651 320.005 139.651H303.36C301.171 139.651 299.396 137.341 299.396 134.491V128.3C299.396 125.451 301.171 123.141 303.36 123.141Z" fill="white"/>
<path d="M307.323 168.544C312.138 168.544 316.042 163.462 316.042 157.193C316.042 150.924 312.138 145.842 307.323 145.842C302.507 145.842 298.604 150.924 298.604 157.193C298.604 163.462 302.507 168.544 307.323 168.544Z" fill="#FF4F6D"/>
<path d="M315.248 168.544C320.064 168.544 323.968 163.462 323.968 157.193C323.968 150.924 320.064 145.842 315.248 145.842C310.433 145.842 306.529 150.924 306.529 157.193C306.529 163.462 310.433 168.544 315.248 168.544Z" fill="#FF4F6D"/>
</g>
<path fill-rule="evenodd" clip-rule="evenodd" d="M301.773 116.948C301.773 121.507 306.032 125.203 311.285 125.203C316.538 125.203 320.797 121.507 320.797 116.948" fill="black" fill-opacity="0.16"/>
<path fill-rule="evenodd" clip-rule="evenodd" d="M279.707 98.8356C281.171 94.9156 284.466 92.1826 288.297 92.1826C292.115 92.1826 295.401 94.8963 296.872 98.7941C297.309 99.952 296.687 100.9 296.06 100.197C294.117 98.0229 291.358 96.665 288.297 96.665C285.333 96.665 282.651 97.9393 280.72 99.9958C280.013 100.748 279.279 99.9821 279.707 98.8356Z" fill="black" fill-opacity="0.6"/>
<path fill-rule="evenodd" clip-rule="evenodd" d="M325.682 98.8356C327.145 94.9156 330.441 92.1826 334.272 92.1826C338.089 92.1826 341.375 94.8963 342.847 98.7941C343.284 99.952 342.662 100.9 342.034 100.197C340.091 98.0229 337.332 96.665 334.272 96.665C331.307 96.665 328.625 97.9393 326.694 99.9958C325.988 100.748 325.254 99.9821 325.682 98.8356Z" fill="black" fill-opacity="0.6"/>
<path fill-rule="evenodd" clip-rule="evenodd" d="M287.941 73.7647C283.338 74.0403 275.897 78.393 276.089 84.4362C276.096 84.634 276.319 84.7209 276.428 84.5688C278.611 81.5154 294.116 78.4333 299.577 80.07C300.077 80.22 300.457 79.5782 300.14 79.1144C297.427 75.1424 292.065 73.5125 287.941 73.7647Z" fill="black" fill-opacity="0.6"/>
<path fill-rule="evenodd" clip-rule="evenodd" d="M335.422 73.7647C340.025 74.0403 347.466 78.393 347.274 84.4362C347.267 84.634 347.044 84.7209 346.935 84.5688C344.752 81.5154 329.247 78.4333 323.786 80.07C323.286 80.22 322.906 79.5782 323.223 79.1144C325.936 75.1424 331.298 73.5125 335.422 73.7647Z" fill="black" fill-opacity="0.6"/>
<mask id="mask3" mask-type="alpha" maskUnits="userSpaceOnUse" x="206" y="-18" width="210" height="290">
<path d="M415.916 -17.1982H206.656V271.732H415.916V-17.1982Z" fill="white"/>
</mask>
<g mask="url(#mask3)">
<mask id="mask4" mask-type="alpha" maskUnits="userSpaceOnUse" x="264" y="0" width="94" height="85">
<path d="M348.571 23.9952C346.384 21.0853 343.844 18.6153 341.374 16.1385C340.828 15.5925 340.275 15.0597 339.742 14.4929C339.621 14.3641 338.379 13.2071 338.231 12.7812C337.874 11.7568 338.081 12.5545 338.13 11.332C338.192 9.78612 340.614 5.41997 338.807 4.41871C338.012 3.97832 336.594 5.15027 335.832 5.53734C334.34 6.29486 332.831 6.9409 331.289 7.49797C332.028 5.582 333.436 1.74661 330.789 2.77314C328.727 3.5729 326.805 5.62909 324.733 6.59642C325.419 5.1333 328.161 0.599592 325.683 0.346161C324.912 0.267224 322.669 2.14995 321.838 2.55156C319.352 3.75467 316.813 4.53227 314.202 5.14473C305.326 7.22723 294.946 6.63346 286.734 11.8942C280.403 15.9498 274.152 22.2427 270.494 30.2559C266.969 37.9796 265.651 46.4325 264.913 55.2832C264.371 61.7786 264.327 68.4928 264.581 75.0117C264.663 77.1475 264.848 86.9929 267.231 84.0112C268.419 82.5256 268.41 76.5267 268.709 74.4962C269.304 70.4562 269.877 66.3981 270.87 62.4873C272.618 55.5955 274.681 52.3819 279.038 47.6352C281.833 44.5896 283.797 40.473 286.472 37.4004C287.674 36.0204 286.757 36.164 288.689 36.3451C289.987 36.4666 291.291 36.513 292.592 36.5573C295.601 36.6591 298.614 36.6332 301.624 36.647C307.685 36.6754 313.718 36.7869 319.773 36.3738C322.464 36.1903 325.163 36.091 327.847 35.7669C329.346 35.5858 332.006 34.335 333.24 35.2909C334.37 36.1654 335.543 39.021 336.354 40.1905C338.27 42.9544 340.554 45.0653 342.795 47.3316C347.467 52.0571 349.826 53.8647 351.245 61.2496C352.658 68.607 352.262 75.4329 354.012 82.6733C354.32 83.9463 355.134 86.1407 356.137 84.1738C356.324 83.8085 356.276 81.8006 356.276 80.6452C356.276 75.9812 357.183 72.4819 357.172 67.7875C357.127 53.5144 356.772 34.9028 348.571 23.9952Z" fill="white"/>
</mask>
<g mask="url(#mask4)">
<path d="M348.571 23.9952C346.384 21.0853 343.844 18.6153 341.374 16.1385C340.828 15.5925 340.275 15.0597 339.742 14.4929C339.621 14.3641 338.379 13.2071 338.231 12.7812C337.874 11.7568 338.081 12.5545 338.13 11.332C338.192 9.78612 340.614 5.41997 338.807 4.41871C338.012 3.97832 336.594 5.15027 335.832 5.53734C334.34 6.29486 332.831 6.9409 331.289 7.49797C332.028 5.582 333.436 1.74661 330.789 2.77314C328.727 3.5729 326.805 5.62909 324.733 6.59642C325.419 5.1333 328.161 0.599592 325.683 0.346161C324.912 0.267224 322.669 2.14995 321.838 2.55156C319.352 3.75467 316.813 4.53227 314.202 5.14473C305.326 7.22723 294.946 6.63346 286.734 11.8942C280.403 15.9498 274.152 22.2427 270.494 30.2559C266.969 37.9796 265.651 46.4325 264.913 55.2832C264.371 61.7786 264.327 68.4928 264.581 75.0117C264.663 77.1475 264.848 86.9929 267.231 84.0112C268.419 82.5256 268.41 76.5267 268.709 74.4962C269.304 70.4562 269.877 66.3981 270.87 62.4873C272.618 55.5955 274.681 52.3819 279.038 47.6352C281.833 44.5896 283.797 40.473 286.472 37.4004C287.674 36.0204 286.757 36.164 288.689 36.3451C289.987 36.4666 291.291 36.513 292.592 36.5573C295.601 36.6591 298.614 36.6332 301.624 36.647C307.685 36.6754 313.718 36.7869 319.773 36.3738C322.464 36.1903 325.163 36.091 327.847 35.7669C329.346 35.5858 332.006 34.335 333.24 35.2909C334.37 36.1654 335.543 39.021 336.354 40.1905C338.27 42.9544 340.554 45.0653 342.795 47.3316C347.467 52.0571 349.826 53.8647 351.245 61.2496C352.658 68.607 352.262 75.4329 354.012 82.6733C354.32 83.9463 355.134 86.1407 356.137 84.1738C356.324 83.8085 356.276 81.8006 356.276 80.6452C356.276 75.9812 357.183 72.4819 357.172 67.7875C357.127 53.5144 356.772 34.9028 348.571 23.9952Z" fill="#1F3140"/>
<path d="M417.155 -17.1982H206.568V272.198H417.155V-17.1982Z" fill="#4A312C"/>
</g>
</g>
</g>
<mask id="mask5" mask-type="alpha" maskUnits="userSpaceOnUse" x="230" y="170" width="162" height="103">
<path d="M330.778 170.653C345.352 172.771 356.543 178.592 356.543 193.663L356.538 193.21C377.36 204.631 391.973 231.396 391.973 262.592V272.003H230.93V262.592C230.93 231.396 245.542 204.631 266.364 193.21C266.585 178.475 277.698 172.75 292.126 170.653L292.126 190.446C292.126 204.305 300.778 215.54 311.451 215.54C322.124 215.54 330.776 204.305 330.776 190.446L330.778 170.653Z" fill="white"/>
</mask>
<g mask="url(#mask5)">
<path d="M330.778 170.653C345.352 172.771 356.543 178.592 356.543 193.663L356.538 193.21C377.36 204.631 391.973 231.396 391.973 262.592V272.003H230.93V262.592C230.93 231.396 245.542 204.631 266.364 193.21C266.585 178.475 277.698 172.75 292.126 170.653L292.126 190.446C292.126 204.305 300.778 215.54 311.451 215.54C322.124 215.54 330.776 204.305 330.776 190.446L330.778 170.653Z" fill="#B7C1DB"/>
<path d="M416.665 164.398H203.291V279.416H416.665V164.398Z" fill="#293347"/>
<path fill-rule="evenodd" clip-rule="evenodd" d="M287.295 221.541L287.296 272.003H281.659L281.658 217.787C283.433 219.157 285.32 220.413 287.295 221.541ZM341.246 217.787L341.245 259.978C341.245 261.999 339.983 263.638 338.427 263.638C336.87 263.638 335.609 261.999 335.609 259.978L335.61 221.54C337.585 220.412 339.472 219.157 341.246 217.787Z" fill="#F4F4F4"/>
<path fill-rule="evenodd" clip-rule="evenodd" d="M344.495 170.291C356.615 173.268 364.998 179.198 364.998 190.768C364.998 211.38 338.396 228.088 311.451 228.088C284.507 228.088 257.904 211.38 257.904 190.768C257.904 179.198 266.287 173.268 278.407 170.291C271.091 173.793 266.359 179.681 266.359 189.481C266.359 210.803 288.761 228.088 311.451 228.088C334.141 228.088 356.543 210.803 356.543 189.481C356.543 179.886 352.007 174.041 344.949 170.513L344.495 170.291Z" fill="black" fill-opacity="0.16"/>
</g>
</g>
<defs>
<clipPath id="clip0">
<rect width="191.117" height="271.732" fill="white" transform="translate(215.463)"/>
</clipPath>
</defs>
</svg>
