<svg width="991" height="492" viewBox="0 0 991 492" fill="none" xmlns="http://www.w3.org/2000/svg">
<path d="M603.42 419.881H1.57963C1.16069 419.881 0.758926 419.746 0.462687 419.504C0.166448 419.263 0 418.935 0 418.593C0 418.252 0.166448 417.924 0.462687 417.683C0.758926 417.441 1.16069 417.306 1.57963 417.306H603.42C603.839 417.306 604.241 417.441 604.537 417.683C604.834 417.924 605 418.252 605 418.593C605 418.935 604.834 419.263 604.537 419.504C604.241 419.746 603.839 419.881 603.42 419.881Z" fill="#3F3D56"/>
<path d="M275.037 443.062L273.893 424.897L348.893 412.154L350.583 438.967L275.037 443.062Z" fill="#FFB8B8"/>
<path d="M277.726 411.98L279.895 445.428L256.399 446.667L252.866 392.158C255.951 391.996 259.042 392.379 261.961 393.288C264.88 394.196 267.571 395.61 269.879 397.451C272.188 399.292 274.069 401.522 275.416 404.015C276.762 406.508 277.547 409.214 277.726 411.98Z" fill="#293347"/>
<path d="M306.76 442.045L294.328 455.942L230.07 418.499L248.418 397.989L306.76 442.045Z" fill="#FFB8B8"/>
<path d="M280.997 462.127L304.733 436.087L322.915 449.563L284.235 492C281.847 490.23 279.87 488.054 278.415 485.595C276.96 483.136 276.056 480.442 275.755 477.668C275.455 474.894 275.763 472.094 276.662 469.428C277.562 466.761 279.035 464.281 280.997 462.127V462.127Z" fill="#293347"/>
<path d="M271.559 379.377L263.074 415.556C262.879 416.389 262.89 417.251 263.106 418.08C263.323 418.909 263.739 419.684 264.326 420.35C264.913 421.016 265.655 421.556 266.5 421.932C267.345 422.308 268.271 422.51 269.212 422.524L352.62 423.741C353.56 423.754 354.492 423.58 355.349 423.23C356.206 422.88 356.967 422.362 357.577 421.715C358.187 421.068 358.632 420.307 358.879 419.486C359.126 418.665 359.169 417.806 359.005 416.968L351.71 379.571C351.449 378.236 350.677 377.025 349.528 376.154C348.379 375.282 346.927 374.804 345.427 374.804H277.799C276.337 374.804 274.92 375.258 273.784 376.09C272.648 376.923 271.862 378.083 271.559 379.377V379.377Z" fill="#2F2E41"/>
<path d="M284.526 392.773C284.526 392.773 204.018 347.492 188.233 371.547C180.34 383.575 184.286 395.249 190.206 403.916C195.699 411.807 203.585 418.134 212.941 422.157L278.212 450.789L301.891 428.148L286.105 415.413L284.526 392.773Z" fill="#CCCCCC"/>
<path d="M328.839 384.704C328.839 384.704 432.927 356.929 412.425 409.556C391.923 462.184 314.645 441.718 314.645 441.718L306.76 419.789L333.57 402.247L328.839 384.704Z" fill="#CCCCCC"/>
<path d="M288.284 396.992C289.087 395.057 290.37 393.297 292.041 391.838C293.713 390.378 295.733 389.255 297.959 388.546C300.185 387.837 302.564 387.561 304.927 387.736C307.289 387.91 309.579 388.533 311.635 389.558L355.167 356.777L359.106 382.539L317.163 409.719C314.948 412.6 311.591 414.677 307.729 415.555C303.867 416.433 299.768 416.052 296.208 414.483C292.648 412.915 289.876 410.268 288.415 407.044C286.955 403.82 286.908 400.244 288.284 396.992V396.992Z" fill="#FFB8B8"/>
<path d="M324.338 400.564C323.689 400.564 323.044 400.47 322.422 400.285C321.414 399.992 320.49 399.464 319.728 398.744C318.967 398.024 318.39 397.133 318.046 396.145L313.233 382.583C312.783 381.329 312.726 379.969 313.069 378.683C313.413 377.396 314.141 376.244 315.157 375.378L369.48 342.937L348.066 247.908L348.611 247.777C348.832 247.723 370.773 242.756 379.763 266.604C386.059 283.307 409.358 319.625 407.715 344.167C407.402 349.076 405.436 353.737 402.133 357.398C398.83 361.058 394.383 363.504 389.51 364.341L328.362 399.191C327.21 400.079 325.795 400.562 324.338 400.564Z" fill="#293347"/>
<path d="M335.009 394.002C334.233 392.025 332.994 390.227 331.379 388.736C329.764 387.245 327.813 386.097 325.662 385.373C323.511 384.648 321.214 384.366 318.931 384.544C316.648 384.723 314.436 385.359 312.45 386.407L270.393 352.913L266.588 379.235L307.109 407.005C309.249 409.95 312.492 412.072 316.223 412.969C319.954 413.866 323.915 413.476 327.354 411.874C330.793 410.271 333.472 407.566 334.882 404.273C336.293 400.979 336.338 397.325 335.009 394.002V394.002Z" fill="#FFB8B8"/>
<path d="M295.923 395.413C294.549 395.411 293.214 394.944 292.127 394.086L230.268 363.248C225.671 362.439 221.476 360.075 218.361 356.538C215.245 353 213.39 348.496 213.095 343.752C211.545 320.035 237.703 282.098 243.642 265.957C252.122 242.91 272.818 247.708 273.027 247.762L273.541 247.889L249.161 342.563L304.583 371.074C305.542 371.91 306.229 373.024 306.553 374.267C306.877 375.51 306.823 376.825 306.398 378.036L301.858 391.143C301.534 392.097 300.99 392.958 300.271 393.654C299.553 394.35 298.682 394.86 297.73 395.143C297.144 395.321 296.535 395.413 295.923 395.413Z" fill="#293347"/>
<path d="M380.969 419.882H241.073C238.156 419.878 235.36 418.822 233.297 416.944C231.234 415.067 230.074 412.521 230.07 409.865V339.75C230.074 337.094 231.234 334.548 233.297 332.671C235.36 330.793 238.156 329.736 241.073 329.733H380.969C383.886 329.736 386.683 330.793 388.745 332.671C390.808 334.548 391.968 337.094 391.972 339.75V409.865C391.968 412.521 390.808 415.067 388.745 416.944C386.682 418.822 383.886 419.878 380.969 419.882Z" fill="#6C63FF"/>
<path d="M312.24 383.821C317.954 383.821 322.587 379.785 322.587 374.806C322.587 369.827 317.954 365.791 312.24 365.791C306.525 365.791 301.893 369.827 301.893 374.806C301.893 379.785 306.525 383.821 312.24 383.821Z" fill="white"/>
<path d="M51.0854 404.693C53.0668 385.611 58.5395 366.95 67.2848 349.454C69.7222 344.585 72.4049 339.823 75.3329 335.169C75.4798 334.926 75.5152 334.641 75.4317 334.374C75.3481 334.108 75.1521 333.881 74.885 333.742C74.618 333.602 74.3008 333.561 74.0003 333.626C73.6998 333.692 73.4395 333.859 73.2744 334.093C62.6262 351.046 55.1664 369.449 51.1934 388.565C50.0882 393.904 49.2575 399.28 48.7013 404.693C48.56 406.059 50.945 406.05 51.0854 404.693V404.693Z" fill="#E6E6E6"/>
<path d="M80.9487 337.457C89.3525 337.457 96.165 331.402 96.165 323.934C96.165 316.466 89.3525 310.412 80.9487 310.412C72.545 310.412 65.7324 316.466 65.7324 323.934C65.7324 331.402 72.545 337.457 80.9487 337.457Z" fill="#38F99C"/>
<path d="M52.6459 405.038C53.9069 392.43 57.3895 380.1 62.9547 368.54C64.5058 365.323 66.213 362.177 68.0763 359.102C68.1697 358.941 68.1922 358.753 68.139 358.577C68.0858 358.401 67.9611 358.251 67.7912 358.159C67.6213 358.067 67.4194 358.039 67.2282 358.083C67.037 358.126 66.8714 358.236 66.7663 358.391C59.9902 369.592 55.243 381.751 52.7146 394.381C52.0113 397.909 51.4827 401.461 51.1288 405.038C51.0389 405.94 52.5566 405.934 52.646 405.038H52.6459Z" fill="#E6E6E6"/>
<path d="M72.4325 363.214C77.4747 363.214 81.5623 358.89 81.5623 353.555C81.5623 348.221 77.4747 343.896 72.4325 343.896C67.3903 343.896 63.3027 348.221 63.3027 353.555C63.3027 358.89 67.3903 363.214 72.4325 363.214Z" fill="#38F99C"/>
<path d="M51.0001 404.563C43.7994 393.997 38.493 382.391 35.2929 370.208C34.4041 366.816 33.6818 363.391 33.1258 359.934C33.0937 359.755 32.989 359.595 32.8339 359.488C32.6788 359.38 32.4853 359.334 32.2944 359.358C32.1035 359.382 31.93 359.475 31.8105 359.617C31.6911 359.759 31.6349 359.939 31.6541 360.119C33.6872 372.707 37.907 384.896 44.1446 396.197C45.8886 399.351 47.7836 402.426 49.8295 405.421C50.345 406.177 51.5124 405.314 51.0001 404.563V404.563Z" fill="#E6E6E6"/>
<path d="M31.651 360.639C37.7017 360.639 42.6068 356.603 42.6068 351.624C42.6068 346.645 37.7017 342.609 31.651 342.609C25.6004 342.609 20.6953 346.645 20.6953 351.624C20.6953 356.603 25.6004 360.639 31.651 360.639Z" fill="#38F99C"/>
<path d="M20.6953 410.958V394.032C20.6975 392.349 21.4625 390.736 22.8225 389.546C24.1825 388.356 26.0264 387.686 27.9498 387.685H73.0887C75.0121 387.686 76.856 388.356 78.216 389.546C79.576 390.736 80.341 392.349 80.3432 394.032V410.958C80.341 412.64 79.576 414.254 78.216 415.444C76.856 416.633 75.0121 417.303 73.0887 417.305H27.9498C26.0264 417.303 24.1825 416.633 22.8225 415.444C21.4625 414.254 20.6975 412.64 20.6953 410.958V410.958Z" fill="#F2F2F2"/>
<path d="M497.877 431.175C497.877 441.118 489.429 445.638 479.009 445.638C468.588 445.638 460.141 441.118 460.141 431.175C460.141 421.231 464.334 409.629 479.009 413.63C493.684 407.628 497.877 421.231 497.877 431.175Z" fill="#FF6584"/>
<path d="M477.68 418.593C476.917 418.594 476.18 418.341 475.607 417.881C475.033 417.421 474.663 416.785 474.565 416.093C473.915 411.151 470.335 401.47 468.826 397.538L468.826 397.536C468.673 397.145 468.626 396.726 468.689 396.316C468.753 395.905 468.924 395.514 469.189 395.177C469.442 394.875 469.761 394.626 470.127 394.446C470.493 394.266 470.897 394.158 471.311 394.131C471.725 394.104 472.142 394.157 472.532 394.287C472.922 394.417 473.278 394.622 473.576 394.887C473.842 395.142 474.047 395.444 474.18 395.775C474.313 396.106 474.37 396.458 474.347 396.81C474.052 401.857 478.075 410.012 480.5 414.425C480.729 414.841 480.844 415.302 480.835 415.768C480.826 416.233 480.693 416.69 480.449 417.098C480.204 417.507 479.854 417.855 479.43 418.112C479.006 418.37 478.519 418.529 478.013 418.577C477.902 418.588 477.791 418.593 477.68 418.593V418.593Z" fill="#3F3D56"/>
<path d="M492.309 407.979C499.194 402.853 493.792 392.364 485.175 394.377C484.015 394.629 482.946 395.148 482.07 395.884C476.784 400.425 475.965 412.046 475.965 412.046C475.965 412.046 485.3 413.196 492.309 407.979Z" fill="#3F3D56"/>
<g clip-path="url(#clip0)">
<mask id="mask0" mask-type="alpha" maskUnits="userSpaceOnUse" x="206" y="40" width="210" height="290">
<path d="M206.656 205.905V40.8018H415.916V205.905H406.404C406.404 274.293 363.818 329.732 311.286 329.732C258.754 329.732 216.168 274.293 216.168 205.905H206.656Z" fill="white"/>
</mask>
<g mask="url(#mask0)">
<mask id="mask1" mask-type="alpha" maskUnits="userSpaceOnUse" x="232" y="77" width="159" height="253">
<path d="M311.286 77.9502C335.801 77.9502 355.675 103.822 355.675 135.736L355.676 142.099C360.174 143.082 363.601 148.175 363.601 154.31V168.757C363.601 175.002 360.05 180.168 355.432 181.017C353.794 201.454 343.974 218.723 330.311 227.173L330.31 246.149H333.481C365 246.149 390.551 279.413 390.551 320.446V329.733H232.021V320.446C232.021 279.413 257.573 246.149 289.092 246.149H292.263L292.263 227.174C278.6 218.724 268.778 201.455 267.14 181.017C262.523 180.168 258.972 175.002 258.972 168.757V154.31C258.972 148.175 262.399 143.081 266.898 142.099L266.898 135.736C266.898 103.822 286.771 77.9502 311.286 77.9502Z" fill="white"/>
</mask>
<g mask="url(#mask1)">
<path d="M311.286 77.9502C335.801 77.9502 355.675 103.822 355.675 135.736L355.676 142.099C360.174 143.082 363.601 148.175 363.601 154.31V168.757C363.601 175.002 360.05 180.168 355.432 181.017C353.794 201.454 343.974 218.723 330.311 227.173L330.31 246.149H333.481C365 246.149 390.551 279.413 390.551 320.446V329.733H232.021V320.446C232.021 279.413 257.573 246.149 289.092 246.149H292.263L292.263 227.174C278.6 218.724 268.778 201.455 267.14 181.017C262.523 180.168 258.972 175.002 258.972 168.757V154.31C258.972 148.175 262.399 143.081 266.898 142.099L266.898 135.736C266.898 103.822 286.771 77.9502 311.286 77.9502Z" fill="#D0C6AC"/>
<path d="M416.606 77.9502H206.656V330.598H416.606V77.9502Z" fill="#FFDBB4"/>
<path fill-rule="evenodd" clip-rule="evenodd" d="M266.898 174.948C266.898 206.863 286.772 232.734 311.287 232.734C335.802 232.734 355.675 206.863 355.675 174.948V183.203C355.675 215.118 335.802 240.99 311.287 240.99C286.772 240.99 266.898 215.118 266.898 183.203V174.948Z" fill="black" fill-opacity="0.1"/>
</g>
<mask id="mask2" mask-type="alpha" maskUnits="userSpaceOnUse" x="296" y="192" width="31" height="21">
<path d="M296.319 194.687C297.157 204.482 303.538 212.097 311.286 212.097C319.057 212.097 325.453 204.435 326.26 194.596C326.325 193.805 325.646 192.491 324.795 192.491C312.989 192.491 303.944 192.491 297.879 192.491C297.023 192.491 296.235 193.707 296.319 194.687Z" fill="white"/>
</mask>
<g mask="url(#mask2)">
<path d="M296.319 194.687C297.157 204.482 303.538 212.097 311.286 212.097C319.057 212.097 325.453 204.435 326.26 194.596C326.325 193.805 325.646 192.491 324.795 192.491C312.989 192.491 303.944 192.491 297.879 192.491C297.023 192.491 296.235 193.707 296.319 194.687Z" fill="black" fill-opacity="0.7"/>
<path fill-rule="evenodd" clip-rule="evenodd" d="M303.36 181.141H320.005C322.194 181.141 323.969 183.451 323.969 186.3V192.491C323.969 195.341 322.194 197.651 320.005 197.651H303.36C301.171 197.651 299.396 195.341 299.396 192.491V186.3C299.396 183.451 301.171 181.141 303.36 181.141Z" fill="white"/>
<path d="M307.323 226.544C312.138 226.544 316.042 221.462 316.042 215.193C316.042 208.924 312.138 203.842 307.323 203.842C302.507 203.842 298.604 208.924 298.604 215.193C298.604 221.462 302.507 226.544 307.323 226.544Z" fill="#FF4F6D"/>
<path d="M315.248 226.544C320.064 226.544 323.968 221.462 323.968 215.193C323.968 208.924 320.064 203.842 315.248 203.842C310.433 203.842 306.529 208.924 306.529 215.193C306.529 221.462 310.433 226.544 315.248 226.544Z" fill="#FF4F6D"/>
</g>
<path fill-rule="evenodd" clip-rule="evenodd" d="M301.773 174.948C301.773 179.507 306.032 183.203 311.285 183.203C316.538 183.203 320.797 179.507 320.797 174.948" fill="black" fill-opacity="0.16"/>
<path fill-rule="evenodd" clip-rule="evenodd" d="M279.707 156.836C281.171 152.916 284.466 150.183 288.297 150.183C292.115 150.183 295.401 152.896 296.872 156.794C297.309 157.952 296.687 158.9 296.06 158.197C294.117 156.023 291.358 154.665 288.297 154.665C285.333 154.665 282.651 155.939 280.72 157.996C280.013 158.748 279.279 157.982 279.707 156.836Z" fill="black" fill-opacity="0.6"/>
<path fill-rule="evenodd" clip-rule="evenodd" d="M325.682 156.836C327.145 152.916 330.441 150.183 334.272 150.183C338.089 150.183 341.375 152.896 342.847 156.794C343.284 157.952 342.662 158.9 342.034 158.197C340.091 156.023 337.332 154.665 334.272 154.665C331.307 154.665 328.625 155.939 326.694 157.996C325.988 158.748 325.254 157.982 325.682 156.836Z" fill="black" fill-opacity="0.6"/>
<path fill-rule="evenodd" clip-rule="evenodd" d="M287.941 131.765C283.338 132.04 275.897 136.393 276.089 142.436C276.096 142.634 276.319 142.721 276.428 142.569C278.611 139.515 294.116 136.433 299.577 138.07C300.077 138.22 300.457 137.578 300.14 137.114C297.427 133.142 292.065 131.512 287.941 131.765Z" fill="black" fill-opacity="0.6"/>
<path fill-rule="evenodd" clip-rule="evenodd" d="M335.422 131.765C340.025 132.04 347.466 136.393 347.274 142.436C347.267 142.634 347.044 142.721 346.935 142.569C344.752 139.515 329.247 136.433 323.786 138.07C323.286 138.22 322.906 137.578 323.223 137.114C325.936 133.142 331.298 131.512 335.422 131.765Z" fill="black" fill-opacity="0.6"/>
<mask id="mask3" mask-type="alpha" maskUnits="userSpaceOnUse" x="206" y="40" width="210" height="290">
<path d="M415.916 40.8018H206.656V329.732H415.916V40.8018Z" fill="white"/>
</mask>
<g mask="url(#mask3)">
<mask id="mask4" mask-type="alpha" maskUnits="userSpaceOnUse" x="264" y="58" width="94" height="85">
<path d="M348.571 81.9952C346.384 79.0853 343.844 76.6153 341.374 74.1385C340.828 73.5925 340.275 73.0597 339.742 72.4929C339.621 72.3641 338.379 71.2071 338.231 70.7812C337.874 69.7568 338.081 70.5545 338.13 69.332C338.192 67.7861 340.614 63.42 338.807 62.4187C338.012 61.9783 336.594 63.1503 335.832 63.5373C334.34 64.2949 332.831 64.9409 331.289 65.498C332.028 63.582 333.436 59.7466 330.789 60.7731C328.727 61.5729 326.805 63.6291 324.733 64.5964C325.419 63.1333 328.161 58.5996 325.683 58.3462C324.912 58.2672 322.669 60.15 321.838 60.5516C319.352 61.7547 316.813 62.5323 314.202 63.1447C305.326 65.2272 294.946 64.6335 286.734 69.8942C280.403 73.9498 274.152 80.2427 270.494 88.2559C266.969 95.9796 265.651 104.432 264.913 113.283C264.371 119.779 264.327 126.493 264.581 133.012C264.663 135.147 264.848 144.993 267.231 142.011C268.419 140.526 268.41 134.527 268.709 132.496C269.304 128.456 269.877 124.398 270.87 120.487C272.618 113.595 274.681 110.382 279.038 105.635C281.833 102.59 283.797 98.473 286.472 95.4004C287.674 94.0204 286.757 94.164 288.689 94.3451C289.987 94.4666 291.291 94.513 292.592 94.5573C295.601 94.6591 298.614 94.6332 301.624 94.647C307.685 94.6754 313.718 94.7869 319.773 94.3738C322.464 94.1903 325.163 94.091 327.847 93.7669C329.346 93.5858 332.006 92.335 333.24 93.2909C334.37 94.1654 335.543 97.021 336.354 98.1905C338.27 100.954 340.554 103.065 342.795 105.332C347.467 110.057 349.826 111.865 351.245 119.25C352.658 126.607 352.262 133.433 354.012 140.673C354.32 141.946 355.134 144.141 356.137 142.174C356.324 141.809 356.276 139.801 356.276 138.645C356.276 133.981 357.183 130.482 357.172 125.788C357.127 111.514 356.772 92.9028 348.571 81.9952Z" fill="white"/>
</mask>
<g mask="url(#mask4)">
<path d="M348.571 81.9952C346.384 79.0853 343.844 76.6153 341.374 74.1385C340.828 73.5925 340.275 73.0597 339.742 72.4929C339.621 72.3641 338.379 71.2071 338.231 70.7812C337.874 69.7568 338.081 70.5545 338.13 69.332C338.192 67.7861 340.614 63.42 338.807 62.4187C338.012 61.9783 336.594 63.1503 335.832 63.5373C334.34 64.2949 332.831 64.9409 331.289 65.498C332.028 63.582 333.436 59.7466 330.789 60.7731C328.727 61.5729 326.805 63.6291 324.733 64.5964C325.419 63.1333 328.161 58.5996 325.683 58.3462C324.912 58.2672 322.669 60.15 321.838 60.5516C319.352 61.7547 316.813 62.5323 314.202 63.1447C305.326 65.2272 294.946 64.6335 286.734 69.8942C280.403 73.9498 274.152 80.2427 270.494 88.2559C266.969 95.9796 265.651 104.432 264.913 113.283C264.371 119.779 264.327 126.493 264.581 133.012C264.663 135.147 264.848 144.993 267.231 142.011C268.419 140.526 268.41 134.527 268.709 132.496C269.304 128.456 269.877 124.398 270.87 120.487C272.618 113.595 274.681 110.382 279.038 105.635C281.833 102.59 283.797 98.473 286.472 95.4004C287.674 94.0204 286.757 94.164 288.689 94.3451C289.987 94.4666 291.291 94.513 292.592 94.5573C295.601 94.6591 298.614 94.6332 301.624 94.647C307.685 94.6754 313.718 94.7869 319.773 94.3738C322.464 94.1903 325.163 94.091 327.847 93.7669C329.346 93.5858 332.006 92.335 333.24 93.2909C334.37 94.1654 335.543 97.021 336.354 98.1905C338.27 100.954 340.554 103.065 342.795 105.332C347.467 110.057 349.826 111.865 351.245 119.25C352.658 126.607 352.262 133.433 354.012 140.673C354.32 141.946 355.134 144.141 356.137 142.174C356.324 141.809 356.276 139.801 356.276 138.645C356.276 133.981 357.183 130.482 357.172 125.788C357.127 111.514 356.772 92.9028 348.571 81.9952Z" fill="#1F3140"/>
<path d="M417.155 40.8018H206.568V330.198H417.155V40.8018Z" fill="#4A312C"/>
</g>
</g>
</g>
<mask id="mask5" mask-type="alpha" maskUnits="userSpaceOnUse" x="230" y="228" width="162" height="103">
<path d="M330.778 228.653C345.352 230.771 356.543 236.592 356.543 251.663L356.538 251.21C377.36 262.631 391.973 289.396 391.973 320.592V330.003H230.93V320.592C230.93 289.396 245.542 262.631 266.364 251.21C266.585 236.475 277.698 230.75 292.126 228.653L292.126 248.446C292.126 262.305 300.778 273.54 311.451 273.54C322.124 273.54 330.776 262.305 330.776 248.446L330.778 228.653Z" fill="white"/>
</mask>
<g mask="url(#mask5)">
<path d="M330.778 228.653C345.352 230.771 356.543 236.592 356.543 251.663L356.538 251.21C377.36 262.631 391.973 289.396 391.973 320.592V330.003H230.93V320.592C230.93 289.396 245.542 262.631 266.364 251.21C266.585 236.475 277.698 230.75 292.126 228.653L292.126 248.446C292.126 262.305 300.778 273.54 311.451 273.54C322.124 273.54 330.776 262.305 330.776 248.446L330.778 228.653Z" fill="#B7C1DB"/>
<path d="M416.665 222.398H203.291V337.416H416.665V222.398Z" fill="#293347"/>
<path fill-rule="evenodd" clip-rule="evenodd" d="M287.295 279.541L287.296 330.003H281.659L281.658 275.787C283.433 277.157 285.32 278.413 287.295 279.541ZM341.246 275.787L341.245 317.978C341.245 319.999 339.983 321.638 338.427 321.638C336.87 321.638 335.609 319.999 335.609 317.978L335.61 279.54C337.585 278.412 339.472 277.157 341.246 275.787Z" fill="#F4F4F4"/>
<path fill-rule="evenodd" clip-rule="evenodd" d="M344.495 228.291C356.615 231.268 364.998 237.198 364.998 248.768C364.998 269.38 338.396 286.088 311.451 286.088C284.507 286.088 257.904 269.38 257.904 248.768C257.904 237.198 266.287 231.268 278.407 228.291C271.091 231.793 266.359 237.681 266.359 247.481C266.359 268.803 288.761 286.088 311.451 286.088C334.141 286.088 356.543 268.803 356.543 247.481C356.543 237.886 352.007 232.041 344.949 228.513L344.495 228.291Z" fill="black" fill-opacity="0.16"/>
</g>
</g>
<path d="M684.785 154.136C686.265 137.996 690.352 122.212 696.883 107.413C698.703 103.295 700.706 99.2676 702.893 95.3306C703.003 95.1247 703.029 94.8838 702.967 94.6585C702.904 94.4333 702.758 94.2414 702.559 94.1233C702.359 94.0052 702.122 93.9703 701.898 94.0257C701.674 94.0812 701.479 94.2227 701.356 94.4206C693.404 108.76 687.833 124.325 684.866 140.495C684.04 145.01 683.42 149.557 683.005 154.136C682.899 155.291 684.68 155.284 684.785 154.136V154.136Z" fill="#E6E6E6"/>
<path d="M708.5 99C715.404 99 721 94.0751 721 88C721 81.9249 715.404 77 708.5 77C701.596 77 696 81.9249 696 88C696 94.0751 701.596 99 708.5 99Z" fill="#38F99C"/>
<path d="M685.249 154.448C686.285 144.129 689.146 134.037 693.718 124.576C694.992 121.943 696.395 119.368 697.925 116.851C698.002 116.719 698.02 116.565 697.977 116.421C697.933 116.277 697.831 116.154 697.691 116.079C697.552 116.003 697.386 115.981 697.229 116.016C697.072 116.052 696.935 116.142 696.849 116.269C691.283 125.437 687.383 135.388 685.306 145.726C684.728 148.613 684.294 151.52 684.003 154.448C683.929 155.186 685.176 155.182 685.249 154.448V154.448Z" fill="#E6E6E6"/>
<path d="M701 119C705.418 119 709 115.642 709 111.5C709 107.358 705.418 104 701 104C696.582 104 693 107.358 693 111.5C693 115.642 696.582 119 701 119Z" fill="#38F99C"/>
<path d="M683.896 154.057C677.98 145.397 673.621 135.884 670.992 125.898C670.262 123.118 669.669 120.311 669.212 117.477C669.186 117.331 669.1 117.2 668.972 117.112C668.845 117.024 668.686 116.985 668.529 117.005C668.372 117.025 668.23 117.101 668.132 117.217C668.033 117.334 667.987 117.482 668.003 117.629C669.673 127.947 673.14 137.937 678.264 147.199C679.697 149.785 681.253 152.305 682.934 154.76C683.357 155.38 684.316 154.672 683.896 154.057Z" fill="#E6E6E6"/>
<path d="M668.5 119C672.642 119 676 115.642 676 111.5C676 107.358 672.642 104 668.5 104C664.358 104 661 107.358 661 111.5C661 115.642 664.358 119 668.5 119Z" fill="#38F99C"/>
<path d="M661 159.643V145.357C661.002 143.937 661.592 142.575 662.64 141.571C663.689 140.567 665.111 140.002 666.595 140H701.405C702.889 140.002 704.311 140.567 705.36 141.571C706.408 142.575 706.998 143.937 707 145.357V159.643C706.998 161.063 706.408 162.425 705.36 163.429C704.311 164.433 702.889 164.998 701.405 165H666.595C665.111 164.998 663.689 164.433 662.64 163.429C661.592 162.425 661.002 161.063 661 159.643Z" fill="#F2F2F2"/>
<path d="M700.429 69H685.571C684.094 68.9984 682.678 68.4338 681.634 67.4302C680.589 66.4266 680.002 65.0659 680 63.6466V5.35345C680.002 3.93412 680.589 2.57339 681.634 1.56977C682.678 0.566153 684.094 0.00159956 685.571 0H700.429C701.906 0.00159956 703.322 0.566153 704.366 1.56977C705.411 2.57339 705.998 3.93412 706 5.35345V63.6466C705.998 65.0659 705.411 66.4266 704.366 67.4302C703.322 68.4338 701.906 68.9984 700.429 69V69Z" fill="#F2F2F2"/>
<path d="M705 11H680V16H705V11Z" fill="#CCCCCC"/>
<path d="M705 48H680V53H705V48Z" fill="#CCCCCC"/>
<path d="M739.214 69H723.786C722.252 68.9984 720.781 68.4338 719.696 67.4302C718.612 66.4266 718.002 65.0659 718 63.6466V5.35345C718.002 3.93412 718.612 2.57339 719.696 1.56977C720.781 0.566153 722.252 0.00159956 723.786 0H739.214C740.748 0.00159956 742.219 0.566153 743.303 1.56977C744.388 2.57339 744.998 3.93412 745 5.35345V63.6466C744.998 65.0659 744.388 66.4266 743.303 67.4302C742.219 68.4338 740.748 68.9984 739.214 69V69Z" fill="#F2F2F2"/>
<path d="M744 11H718V16H744V11Z" fill="#CCCCCC"/>
<path d="M744 48H718V53H744V48Z" fill="#CCCCCC"/>
<path d="M778.214 69H762.786C761.252 68.9984 759.781 68.4338 758.696 67.4302C757.612 66.4266 757.002 65.0659 757 63.6466V5.35345C757.002 3.93412 757.612 2.57339 758.696 1.56977C759.781 0.566153 761.252 0.00159956 762.786 0H778.214C779.748 0.00159956 781.219 0.566153 782.303 1.56977C783.388 2.57339 783.998 3.93412 784 5.35345V63.6466C783.998 65.0659 783.388 66.4266 782.303 67.4302C781.219 68.4338 779.748 68.9984 778.214 69V69Z" fill="#F2F2F2"/>
<path d="M783 11H758V16H783V11Z" fill="#CCCCCC"/>
<path d="M783 48H758V53H783V48Z" fill="#CCCCCC"/>
<path d="M798.214 165H782.786C781.252 164.998 779.781 164.434 778.696 163.43C777.612 162.427 777.002 161.066 777 159.647V101.353C777.002 99.9341 777.612 98.5734 778.696 97.5697C779.781 96.5661 781.252 96.0016 782.786 96H798.214C799.748 96.0016 801.219 96.5661 802.303 97.5697C803.388 98.5734 803.998 99.9341 804 101.353V159.647C803.998 161.066 803.388 162.427 802.303 163.43C801.219 164.434 799.748 164.998 798.214 165V165Z" fill="#F2F2F2"/>
<path d="M804 107H778V112H804V107Z" fill="#CCCCCC"/>
<path d="M804 144H778V149H804V144Z" fill="#CCCCCC"/>
<path d="M837 165H821C819.409 164.998 817.884 164.434 816.759 163.43C815.634 162.427 815.002 161.066 815 159.647V101.353C815.002 99.9341 815.634 98.5734 816.759 97.5697C817.884 96.5661 819.409 96.0016 821 96H837C838.591 96.0016 840.116 96.5661 841.241 97.5697C842.365 98.5734 842.998 99.9341 843 101.353V159.647C842.998 161.066 842.365 162.427 841.241 163.43C840.116 164.434 838.591 164.998 837 165Z" fill="#F2F2F2"/>
<path d="M876 166H860C858.409 165.998 856.884 165.426 855.759 164.407C854.634 163.389 854.002 162.009 854 160.569V101.431C854.002 99.9911 854.634 98.6107 855.759 97.5925C856.884 96.5743 858.409 96.0016 860 96H876C877.591 96.0016 879.116 96.5743 880.241 97.5925C881.365 98.6107 881.998 99.9911 882 101.431V160.569C881.998 162.009 881.365 163.389 880.241 164.407C879.116 165.426 877.591 165.998 876 166Z" fill="#F2F2F2"/>
<path d="M842 107H816V112H842V107Z" fill="#CCCCCC"/>
<path d="M881 108H854V113H881V108Z" fill="#CCCCCC"/>
<path d="M842 144H816V149H842V144Z" fill="#CCCCCC"/>
<path d="M881 144H854V149H881V144Z" fill="#CCCCCC"/>
<path d="M696.429 261H681.571C680.094 260.998 678.678 260.442 677.634 259.453C676.589 258.464 676.002 257.123 676 255.724V198.276C676.002 196.877 676.589 195.536 677.634 194.547C678.678 193.558 680.094 193.002 681.571 193H696.429C697.906 193.002 699.322 193.558 700.366 194.547C701.411 195.536 701.998 196.877 702 198.276V255.724C701.998 257.123 701.411 258.464 700.366 259.453C699.322 260.442 697.906 260.998 696.429 261Z" fill="#F2F2F2"/>
<path d="M701 204H676V208H701V204Z" fill="#CCCCCC"/>
<path d="M701 241H676V245H701V241Z" fill="#CCCCCC"/>
<path d="M734.214 261H718.786C717.252 260.998 715.781 260.442 714.696 259.453C713.612 258.464 713.002 257.123 713 255.724V198.276C713.002 196.877 713.612 195.536 714.696 194.547C715.781 193.558 717.252 193.002 718.786 193H734.214C735.748 193.002 737.219 193.558 738.303 194.547C739.388 195.536 739.998 196.877 740 198.276V255.724C739.998 257.123 739.388 258.464 738.303 259.453C737.219 260.442 735.748 260.998 734.214 261V261Z" fill="#F2F2F2"/>
<path d="M739 204H713V208H739V204Z" fill="#CCCCCC"/>
<path d="M739 241H713V245H739V241Z" fill="#CCCCCC"/>
<path d="M815.429 69H800.571C799.094 68.9984 797.678 68.4338 796.634 67.4302C795.589 66.4266 795.002 65.0659 795 63.6466V5.35345C795.002 3.93412 795.589 2.57339 796.634 1.56977C797.678 0.566153 799.094 0.00159956 800.571 0H815.429C816.906 0.00159956 818.322 0.566153 819.366 1.56977C820.411 2.57339 820.998 3.93412 821 5.35345V63.6466C820.998 65.0659 820.411 66.4266 819.366 67.4302C818.322 68.4338 816.906 68.9984 815.429 69V69Z" fill="#F2F2F2"/>
<path d="M821 11H796V16H821V11Z" fill="#CCCCCC"/>
<path d="M821 48H796V53H821V48Z" fill="#CCCCCC"/>
<path d="M854.214 69H838.786C837.252 68.9984 835.781 68.4338 834.696 67.4302C833.612 66.4266 833.002 65.0659 833 63.6466V5.35345C833.002 3.93412 833.612 2.57339 834.696 1.56977C835.781 0.566153 837.252 0.00159956 838.786 0H854.214C855.748 0.00159956 857.219 0.566153 858.303 1.56977C859.388 2.57339 859.998 3.93412 860 5.35345V63.6466C859.998 65.0659 859.388 66.4266 858.303 67.4302C857.219 68.4338 855.748 68.9984 854.214 69Z" fill="#F2F2F2"/>
<path d="M860 11H834V16H860V11Z" fill="#CCCCCC"/>
<path d="M860 48H834V53H860V48Z" fill="#CCCCCC"/>
<path d="M893.214 69H877.786C876.252 68.9984 874.781 68.4338 873.696 67.4302C872.612 66.4266 872.002 65.0659 872 63.6466V5.35345C872.002 3.93412 872.612 2.57339 873.696 1.56977C874.781 0.566153 876.252 0.00159956 877.786 0H893.214C894.748 0.00159956 896.219 0.566153 897.303 1.56977C898.388 2.57339 898.998 3.93412 899 5.35345V63.6466C898.998 65.0659 898.388 66.4266 897.303 67.4302C896.219 68.4338 894.748 68.9984 893.214 69V69Z" fill="#F2F2F2"/>
<path d="M899 11H873V16H899V11Z" fill="#CCCCCC"/>
<path d="M899 48H873V53H899V48Z" fill="#CCCCCC"/>
<path d="M989.714 70H623.286C622.945 70 622.618 69.9473 622.377 69.8535C622.135 69.7598 622 69.6326 622 69.5C622 69.3674 622.135 69.2402 622.377 69.1464C622.618 69.0527 622.945 69 623.286 69H989.714C990.055 69 990.382 69.0527 990.623 69.1464C990.865 69.2402 991 69.3674 991 69.5C991 69.6326 990.865 69.7598 990.623 69.8535C990.382 69.9473 990.055 70 989.714 70Z" fill="#CCCCCC"/>
<path d="M989.714 167H623.286C622.945 167 622.618 166.895 622.377 166.707C622.135 166.52 622 166.265 622 166C622 165.735 622.135 165.48 622.377 165.293C622.618 165.105 622.945 165 623.286 165H989.714C990.055 165 990.382 165.105 990.623 165.293C990.865 165.48 991 165.735 991 166C991 166.265 990.865 166.52 990.623 166.707C990.382 166.895 990.055 167 989.714 167Z" fill="#CCCCCC"/>
<path d="M989.714 263H623.286C622.945 263 622.618 262.895 622.377 262.707C622.135 262.52 622 262.265 622 262C622 261.735 622.135 261.48 622.377 261.293C622.618 261.105 622.945 261 623.286 261H989.714C990.055 261 990.382 261.105 990.623 261.293C990.865 261.48 991 261.735 991 262C991 262.265 990.865 262.52 990.623 262.707C990.382 262.895 990.055 263 989.714 263Z" fill="#CCCCCC"/>
<path d="M896.874 250.151C898.428 234.275 902.719 218.749 909.577 204.194C911.488 200.143 913.592 196.181 915.888 192.309C916.003 192.106 916.031 191.869 915.965 191.648C915.9 191.426 915.746 191.237 915.537 191.121C915.327 191.005 915.078 190.971 914.843 191.025C914.607 191.08 914.403 191.219 914.274 191.414C905.924 205.518 900.074 220.828 896.959 236.732C896.092 241.174 895.441 245.647 895.005 250.151C894.894 251.287 896.764 251.28 896.874 250.151V250.151Z" fill="#E6E6E6"/>
<path d="M920.5 195C926.851 195 932 190.075 932 184C932 177.925 926.851 173 920.5 173C914.149 173 909 177.925 909 184C909 190.075 914.149 195 920.5 195Z" fill="#38F99C"/>
<path d="M898.249 250.448C899.285 240.129 902.146 230.037 906.718 220.576C907.992 217.943 909.395 215.368 910.925 212.851C911.002 212.719 911.02 212.565 910.977 212.421C910.933 212.277 910.831 212.154 910.691 212.079C910.552 212.003 910.386 211.981 910.229 212.016C910.072 212.052 909.935 212.142 909.849 212.269C904.283 221.437 900.383 231.388 898.306 241.726C897.728 244.613 897.294 247.52 897.003 250.448C896.929 251.186 898.176 251.182 898.249 250.448V250.448Z" fill="#E6E6E6"/>
<path d="M913.5 215C917.642 215 921 211.642 921 207.5C921 203.358 917.642 200 913.5 200C909.358 200 906 203.358 906 207.5C906 211.642 909.358 215 913.5 215Z" fill="#38F99C"/>
<path d="M896.896 250.057C890.98 241.397 886.621 231.884 883.992 221.898C883.262 219.118 882.669 216.311 882.212 213.477C882.186 213.331 882.1 213.2 881.972 213.112C881.845 213.024 881.686 212.985 881.529 213.005C881.372 213.025 881.23 213.101 881.132 213.217C881.033 213.334 880.987 213.482 881.003 213.629C882.673 223.947 886.14 233.937 891.264 243.199C892.697 245.785 894.253 248.305 895.934 250.76C896.357 251.38 897.316 250.672 896.896 250.057Z" fill="#E6E6E6"/>
<path d="M880 214C884.418 214 888 210.866 888 207C888 203.134 884.418 200 880 200C875.582 200 872 203.134 872 207C872 210.866 875.582 214 880 214Z" fill="#38F99C"/>
<path d="M872 255.643V241.357C872.002 239.937 872.617 238.575 873.712 237.571C874.806 236.567 876.29 236.002 877.838 236H914.162C915.71 236.002 917.194 236.567 918.288 237.571C919.383 238.575 919.998 239.937 920 241.357V255.643C919.998 257.063 919.383 258.425 918.288 259.429C917.194 260.433 915.71 260.998 914.162 261H877.838C876.29 260.998 874.806 260.433 873.712 259.429C872.617 258.425 872.002 257.063 872 255.643Z" fill="#F2F2F2"/>
<path d="M875.217 129.633C874.518 129.639 873.912 129.885 873.404 130.252C873.217 129.708 873.029 129.232 872.998 128.876C872.963 128.464 872.92 128.211 872.963 127.718C873.006 127.225 873.201 126.526 873.201 126.468C873.197 126.417 873.158 126.165 872.756 126.159C872.353 126.153 872.006 126.274 871.967 126.428C871.928 126.583 871.849 126.939 871.799 127.305C871.728 127.844 870.994 129.753 870.576 130.757C870.439 130.367 870.322 130.023 870.299 129.748C870.263 129.335 870.22 129.083 870.263 128.59C870.306 128.097 870.502 127.397 870.502 127.34C870.498 127.288 870.459 127.036 870.056 127.03C869.654 127.025 869.306 127.145 869.267 127.3C869.228 127.455 869.185 127.821 869.099 128.177C869.017 128.532 868.041 131.72 867.787 132.551C867.658 132.975 867.544 133.314 867.462 133.543C867.38 133.772 867.458 133.56 867.451 133.583C867.38 133.778 867.341 133.887 867.341 133.887V133.893C867.287 134.036 867.228 134.173 867.201 134.173C867.181 134.173 867.142 133.789 867.208 133.262C867.353 132.156 867.705 130.43 867.701 130.367C867.701 130.338 867.767 130.034 867.474 129.88C867.189 129.725 867.087 129.983 867.064 129.983C867.04 129.983 867.021 130.075 867.021 130.075C867.021 130.075 867.337 128.131 866.415 128.131C865.837 128.131 865.04 129.054 864.646 129.897C864.396 130.097 863.864 130.522 863.302 130.975C863.087 131.147 862.864 131.33 862.653 131.496L862.61 131.427C861.493 129.679 859.427 128.441 859.512 126.09C859.544 125.236 859.747 122.983 863.482 120.254C866.54 118.018 868.99 118.632 869.416 119.996C870.021 121.945 868.107 125.568 864.927 126.09C863.716 126.291 863.079 125.603 862.919 125.345C862.751 125.075 862.728 125.064 862.665 125.115C862.564 125.196 862.626 125.437 862.665 125.58C862.759 125.941 863.15 126.583 863.814 126.904C864.396 127.185 865.818 127.34 867.537 126.365C869.463 125.27 870.967 122.232 870.525 119.692C870.076 117.107 867.154 116.258 864.392 117.697C862.747 118.557 860.966 119.899 859.684 121.659C858.161 123.745 857.919 125.568 858.02 126.325C858.376 129.025 860.911 130.785 861.927 132.087C861.876 132.127 861.829 132.167 861.786 132.201C861.278 132.568 859.344 134.053 858.86 135.624C858.313 137.401 858.946 138.68 859.368 138.852C860.673 139.385 862.009 138.427 862.731 136.851C863.45 135.274 863.364 133.228 863.032 132.293L863.021 132.259L863.419 131.915C863.677 131.691 863.931 131.485 864.153 131.307C864.028 131.806 863.939 132.396 863.892 133.256C863.837 134.265 864.118 135.572 864.489 136.088C864.654 136.312 864.849 136.318 864.97 136.318C865.4 136.318 865.595 135.796 865.81 135.171C866.076 134.408 866.31 133.526 866.31 133.526C866.31 133.526 866.017 135.916 866.818 135.916C867.111 135.916 867.404 135.36 867.537 135.073V135.079C867.537 135.079 867.544 135.062 867.56 135.022C867.576 134.986 867.592 134.95 867.607 134.913V134.902C867.724 134.603 867.986 133.921 868.377 132.792C868.88 131.336 869.365 129.513 869.365 129.513C869.365 129.513 869.412 129.96 869.556 130.694C869.642 131.129 869.83 131.605 869.974 132.07C869.857 132.31 869.787 132.448 869.787 132.448L869.791 132.454C869.697 132.637 869.591 132.832 869.482 133.027C869.084 133.726 868.607 134.523 868.545 134.753C868.47 135.022 868.486 135.223 868.63 135.383C868.736 135.498 868.923 135.521 869.123 135.498C869.482 135.463 869.732 135.332 869.857 135.251C870.052 135.148 870.275 134.993 870.49 134.764C870.881 134.34 871.119 133.738 871.096 132.935C871.084 132.494 870.986 132.058 870.865 131.645C870.9 131.571 870.935 131.496 870.97 131.416C871.588 130.092 872.064 128.636 872.064 128.636C872.064 128.636 872.111 129.083 872.256 129.817C872.33 130.189 872.478 130.596 872.611 130.998C872.033 131.691 871.67 132.494 871.545 133.021C871.314 133.996 871.494 134.437 871.834 134.541C871.986 134.586 872.205 134.483 872.369 134.38C872.572 134.283 872.818 134.116 873.045 133.87C873.436 133.446 873.811 132.855 873.791 132.058C873.779 131.691 873.713 131.33 873.623 130.986C874.115 130.688 874.752 130.516 875.561 130.659C877.299 130.957 877.643 132.551 877.577 133.216C877.51 133.881 877.147 134.248 877.026 134.363C876.905 134.472 876.866 134.512 876.877 134.592C876.893 134.713 876.948 134.707 877.053 134.684C877.198 134.649 877.967 134.139 877.998 132.913C878.045 131.336 877.026 129.616 875.217 129.633ZM861.81 136.266C861.235 137.189 860.427 137.539 860.083 137.241C859.712 136.925 859.856 135.567 860.563 134.586C860.993 133.99 861.552 133.44 861.919 133.101C862.001 133.027 862.126 132.918 862.274 132.786C862.298 132.763 862.313 132.752 862.313 132.752C862.341 132.729 862.372 132.7 862.403 132.671C862.665 134.07 862.415 135.297 861.81 136.266ZM866.009 132.075C865.81 132.792 865.388 134.632 865.134 134.529C864.915 134.443 864.782 133.05 865.091 131.674C865.247 130.98 865.579 130.155 865.775 129.834C866.091 129.318 866.435 129.146 866.521 129.358C866.622 129.633 866.134 131.628 866.009 132.075ZM869.474 134.506C869.388 134.569 869.31 134.615 869.275 134.581C869.248 134.558 869.31 134.472 869.31 134.472C869.31 134.472 869.744 133.789 869.916 133.474C870.013 133.291 870.131 133.079 870.256 132.838V132.907C870.256 133.732 869.716 134.282 869.474 134.506ZM872.146 133.612C872.084 133.543 872.092 133.331 872.303 132.666C872.385 132.402 872.572 131.961 872.896 131.542C872.935 131.714 872.959 131.88 872.955 132.035C872.951 133.067 872.451 133.451 872.146 133.612Z" fill="#CF649A"/>
<path d="M717 231.679C717 232.961 718.097 234 719.45 234H733.55C734.903 234 736 232.961 736 231.679V218.321C736 217.039 734.903 216 733.55 216H719.45C718.097 216 717 217.039 717 218.321V231.679V231.679Z" fill="#563D7C"/>
<path d="M724.879 223.962V221.413H727.248C727.473 221.413 727.691 221.431 727.9 221.466C728.11 221.502 728.295 221.566 728.456 221.657C728.617 221.749 728.746 221.876 728.843 222.039C728.939 222.202 728.988 222.41 728.988 222.665C728.988 223.123 728.843 223.453 728.553 223.657C728.263 223.86 727.892 223.962 727.441 223.962H724.879V223.962ZM722.35 219.551V230.449H727.924C728.44 230.449 728.942 230.388 729.431 230.266C729.92 230.144 730.355 229.956 730.736 229.701C731.117 229.447 731.421 229.119 731.646 228.717C731.872 228.315 731.985 227.839 731.985 227.29C731.985 226.608 731.81 226.025 731.461 225.542C731.112 225.059 730.583 224.72 729.874 224.527C730.389 224.293 730.779 223.993 731.042 223.626C731.305 223.26 731.437 222.802 731.437 222.252C731.437 221.744 731.348 221.316 731.171 220.97C730.994 220.624 730.744 220.347 730.422 220.138C730.099 219.93 729.713 219.78 729.262 219.688C728.81 219.597 728.311 219.551 727.763 219.551H722.35V219.551ZM724.879 228.587V225.595H727.634C728.182 225.595 728.623 225.715 728.956 225.954C729.288 226.193 729.455 226.593 729.455 227.152C729.455 227.437 729.404 227.671 729.302 227.854C729.2 228.038 729.063 228.183 728.891 228.289C728.719 228.396 728.52 228.473 728.295 228.518C728.069 228.564 727.833 228.587 727.586 228.587H724.879V228.587Z" fill="white"/>
<path d="M820.25 117L821.844 137.7L829 140L836.154 137.701L837.75 117H820.25Z" fill="#2196F3"/>
<path d="M834.343 123.77L834.142 126.37L833.535 134.166L829.001 135.607L828.997 135.609L824.466 134.166L824.15 130.089H826.37L826.535 132.203L828.998 132.968L829 132.967L831.467 132.202L831.803 128.679L824.043 128.703L823.823 126.294L831.99 126.183L832.155 123.604L823.605 123.632L823.461 121.232H834.541L834.343 123.77Z" fill="#FAFAFA"/>
<path d="M683 19H702V44H683V19Z" fill="#F7DF1E"/>
<path d="M689.107 40.371L690.483 39.2954C690.748 39.9033 690.99 40.4177 691.569 40.4177C692.124 40.4177 692.474 40.1372 692.474 39.046V31.6248H694.163V39.0768C694.163 41.3374 693.137 42.3664 691.641 42.3664C690.29 42.3664 689.506 41.4621 689.107 40.3708L689.107 40.371ZM695.08 40.1371L696.455 39.1082C696.817 39.8722 697.288 40.4334 698.12 40.4334C698.82 40.4334 699.266 39.9812 699.266 39.3576C699.266 38.6093 698.808 38.3442 698.036 37.9078L697.614 37.6737C696.395 37.0036 695.587 36.1616 695.587 34.3843C695.587 32.7473 696.552 31.5 698.06 31.5C699.134 31.5 699.906 31.9834 700.461 33.2462L699.146 34.3376C698.856 33.6672 698.542 33.4022 698.06 33.4022C697.565 33.4022 697.251 33.8076 697.251 34.3376C697.251 34.9924 697.565 35.2576 698.289 35.6629L698.711 35.8967C700.147 36.6919 700.955 37.5025 700.955 39.3265C700.955 41.291 699.761 42.3667 698.156 42.3667C696.588 42.3667 695.575 41.4001 695.08 40.1372" fill="black"/>
<path d="M730.973 33.611C732 33.611 732.833 32.7434 732.833 31.6732C732.833 30.6029 732 29.7354 730.973 29.7354C729.946 29.7354 729.113 30.6029 729.113 31.6732C729.113 32.7434 729.946 33.611 730.973 33.611Z" fill="#61DAFB"/>
<path d="M738.036 28.4773C737.677 28.3413 737.302 28.2054 736.911 28.0864C737.008 27.6784 737.09 27.2704 737.155 26.8795C737.498 24.6357 737.123 23.0548 736.079 22.4429C735.769 22.2559 735.426 22.1709 735.034 22.1709C733.893 22.1709 732.441 23.0548 730.972 24.5337C729.504 23.0548 728.052 22.1709 726.91 22.1709C726.519 22.1709 726.176 22.2559 725.866 22.4429C724.822 23.0718 724.447 24.6527 724.789 26.8795C724.855 27.2704 724.936 27.6784 725.034 28.0864C724.642 28.2054 724.267 28.3243 723.908 28.4773C721.869 29.2933 720.76 30.4152 720.76 31.673C720.76 32.9309 721.885 34.0528 723.908 34.8688C724.267 35.0047 724.642 35.1407 725.034 35.2597C724.936 35.6677 724.855 36.0757 724.789 36.4666C724.447 38.7104 724.822 40.2913 725.866 40.9032C726.176 41.0902 726.519 41.1752 726.91 41.1752C728.068 41.1752 729.52 40.2913 730.972 38.8124C732.441 40.2913 733.893 41.1752 735.034 41.1752C735.426 41.1752 735.769 41.0902 736.079 40.9032C737.123 40.2743 737.498 38.6934 737.155 36.4666C737.09 36.0757 737.008 35.6677 736.911 35.2597C737.302 35.1407 737.677 35.0217 738.036 34.8688C740.075 34.0528 741.185 32.9309 741.185 31.673C741.185 30.4152 740.075 29.2933 738.036 28.4773ZM735.622 23.2928C736.291 23.7008 736.519 24.9586 736.242 26.7435C736.193 27.1005 736.111 27.4744 736.013 27.8654C735.165 27.6614 734.268 27.5254 733.322 27.4404C732.767 26.6245 732.196 25.8936 731.625 25.2306C732.832 23.9897 734.056 23.1398 735.051 23.1398C735.263 23.1398 735.459 23.1908 735.622 23.2928V23.2928ZM733.795 33.3729C733.501 33.9168 733.158 34.4608 732.799 35.0047C732.196 35.0557 731.592 35.0727 730.972 35.0727C730.336 35.0727 729.732 35.0557 729.145 35.0047C728.786 34.4608 728.46 33.9168 728.166 33.3729C727.856 32.8119 727.563 32.234 727.302 31.673C727.563 31.1121 727.856 30.5341 728.166 29.9732C728.46 29.4292 728.803 28.8853 729.161 28.3413C729.765 28.2904 730.369 28.2734 730.989 28.2734C731.625 28.2734 732.228 28.2904 732.816 28.3413C733.175 28.8853 733.501 29.4292 733.795 29.9732C734.105 30.5341 734.398 31.1121 734.659 31.673C734.382 32.234 734.105 32.7949 733.795 33.3729ZM735.149 32.8119C735.393 33.4069 735.589 33.9848 735.769 34.5628C735.214 34.6988 734.627 34.8008 734.007 34.8858C734.202 34.5628 734.415 34.2228 734.594 33.8659C734.79 33.5089 734.969 33.1519 735.149 32.8119ZM730.972 37.4185C730.581 36.9766 730.206 36.5006 729.847 36.0077C730.222 36.0247 730.597 36.0417 730.972 36.0417C731.348 36.0417 731.723 36.0247 732.098 36.0077C731.739 36.5006 731.364 36.9766 730.972 37.4185ZM727.938 34.8688C727.318 34.7838 726.731 34.6818 726.176 34.5458C726.355 33.9848 726.551 33.3899 726.796 32.7949C726.975 33.1349 727.155 33.4919 727.351 33.8319C727.546 34.2058 727.742 34.5288 727.938 34.8688V34.8688ZM726.796 30.5341C726.551 29.9392 726.355 29.3613 726.176 28.7833C726.731 28.6473 727.318 28.5453 727.938 28.4603C727.742 28.7833 727.53 29.1233 727.351 29.4802C727.155 29.8372 726.975 30.1942 726.796 30.5341V30.5341ZM730.972 25.9276C731.364 26.3695 731.739 26.8455 732.098 27.3384C731.723 27.3214 731.348 27.3044 730.972 27.3044C730.597 27.3044 730.222 27.3214 729.847 27.3384C730.206 26.8455 730.581 26.3695 730.972 25.9276V25.9276ZM734.594 29.4972L734.007 28.4773C734.627 28.5623 735.214 28.6643 735.769 28.8003C735.589 29.3613 735.393 29.9562 735.149 30.5511C734.969 30.1942 734.79 29.8372 734.594 29.4972V29.4972ZM725.703 26.7435C725.426 24.9586 725.654 23.7008 726.323 23.2928C726.486 23.1908 726.682 23.1398 726.894 23.1398C727.873 23.1398 729.096 23.9727 730.32 25.2306C729.749 25.8766 729.178 26.6245 728.623 27.4404C727.677 27.5254 726.78 27.6784 725.931 27.8654C725.833 27.4744 725.768 27.1005 725.703 26.7435ZM721.673 31.673C721.673 30.8741 722.603 30.0242 724.235 29.3953C724.561 29.2593 724.92 29.1403 725.279 29.0383C725.54 29.8882 725.866 30.7891 726.258 31.69C725.866 32.591 725.523 33.4749 725.279 34.3248C723.027 33.6449 721.673 32.625 721.673 31.673V31.673ZM726.323 40.0533C725.654 39.6453 725.426 38.3874 725.703 36.6026C725.752 36.2456 725.833 35.8717 725.931 35.4807C726.78 35.6847 727.677 35.8207 728.623 35.9057C729.178 36.7216 729.749 37.4525 730.32 38.1155C729.113 39.3564 727.889 40.2063 726.894 40.2063C726.682 40.2063 726.486 40.1553 726.323 40.0533ZM736.242 36.6026C736.519 38.3874 736.291 39.6453 735.622 40.0533C735.459 40.1553 735.263 40.2063 735.051 40.2063C734.072 40.2063 732.848 39.3734 731.625 38.1155C732.196 37.4695 732.767 36.7216 733.322 35.9057C734.268 35.8207 735.165 35.6677 736.013 35.4807C736.111 35.8717 736.176 36.2456 736.242 36.6026V36.6026ZM737.71 33.9508C737.384 34.0868 737.025 34.2058 736.666 34.3078C736.405 33.4579 736.079 32.557 735.687 31.656C736.079 30.7551 736.421 29.8712 736.666 29.0213C738.917 29.7012 740.271 30.7211 740.271 31.673C740.271 32.472 739.325 33.3219 737.71 33.9508V33.9508Z" fill="#61DAFB"/>
<path d="M783.773 137.664L782.172 117H799.789L798.188 137.664L790.961 140" fill="#E34F26"/>
<path d="M791 138.203L796.82 136.361L798.187 118.662H791" fill="#EF652A"/>
<path d="M791 126.344H788.07L787.875 123.738H791V121.223H785.453L786.039 128.904H791V126.344ZM790.961 132.947L788.5 132.184L788.344 130.162H786.156L786.43 134.16L790.961 135.598V132.947Z" fill="#EBEBEB"/>
<path d="M790.961 126.344V128.904H793.695L793.422 132.184L790.961 132.947V135.598L795.492 134.16L796.117 126.344H790.961ZM790.961 121.223V123.738H796.312L796.508 121.223H790.961Z" fill="white"/>
<g clip-path="url(#clip1)">
<path d="M774.551 35.2178C775.326 35.1417 775.914 34.5076 775.887 33.7465C775.86 32.9856 775.192 32.3768 774.39 32.3768H774.337C773.508 32.4022 772.867 33.0617 772.894 33.848C772.921 34.2285 773.081 34.5583 773.321 34.7865C772.413 36.4861 771.023 37.7291 768.939 38.7691C767.523 39.4793 766.053 39.733 764.583 39.5555C763.38 39.4033 762.445 38.896 761.857 38.0588C761.002 36.8159 760.922 35.4714 761.643 34.1271C762.151 33.1631 762.953 32.4528 763.461 32.0977C763.354 31.768 763.193 31.2099 763.113 30.8041C759.238 33.4676 759.639 37.0696 760.815 38.7691C761.697 40.0375 763.487 40.8238 765.465 40.8238C765.999 40.8238 766.534 40.773 767.068 40.6463C770.489 40.0121 773.081 38.0842 774.551 35.2178V35.2178ZM779.254 32.0724C777.223 29.8148 774.23 28.5719 770.81 28.5719H770.382C770.141 28.1153 769.634 27.8108 769.072 27.8108H769.019C768.191 27.8362 767.549 28.4957 767.576 29.2821C767.603 30.0431 768.271 30.6519 769.072 30.6519H769.126C769.714 30.6265 770.222 30.2714 770.435 29.7894H770.916C772.947 29.7894 774.871 30.3474 776.609 31.4382C777.945 32.2753 778.907 33.3661 779.441 34.6851C779.895 35.7505 779.869 36.7905 779.388 37.6784C778.639 39.0227 777.383 39.7584 775.727 39.7584C774.658 39.7584 773.642 39.454 773.108 39.2257C772.814 39.4793 772.279 39.8852 771.905 40.1389C773.054 40.6462 774.23 40.9252 775.352 40.9252C777.918 40.9252 779.815 39.5808 780.537 38.2364C781.312 36.7651 781.258 34.2285 779.254 32.0724V32.0724ZM765.679 35.649C765.705 36.41 766.373 37.0187 767.175 37.0187H767.229C768.057 36.9934 768.698 36.3338 768.672 35.5475C768.645 34.7865 767.977 34.1777 767.175 34.1777H767.122C767.068 34.1777 766.988 34.1777 766.935 34.203C765.839 32.4782 765.385 30.6011 765.545 28.5718C765.652 27.0498 766.186 25.7307 767.122 24.6399C767.897 23.7014 769.393 23.2448 770.409 23.2195C773.241 23.1687 774.444 26.5171 774.524 27.8615C774.871 27.9376 775.459 28.1152 775.86 28.242C775.54 24.1327 772.867 22.002 770.302 22.002C767.897 22.002 765.679 23.6508 764.797 26.0859C763.567 29.3328 764.369 32.4528 765.866 34.9134C765.732 35.0909 765.652 35.37 765.679 35.649V35.649Z" fill="#764ABC"/>
</g>
<path d="M874 23V38.3827H880.672V40.9614H886V38.3827H898V23H874Z" fill="#CB3837"/>
<path d="M877.985 25.5791H875.344V35.8046H877.985V28.1577H879.328V35.8046H880.672V25.5791H877.985ZM882.016 25.5791V38.3832H884.703V35.8046H887.344V25.5791H882.016ZM886 33.226H884.703V28.1577H886V33.226ZM891.328 25.5791H888.687V35.8046H891.328V28.1577H892.672V35.8046H894.016V28.1577H895.359V35.8046H896.703V25.5791H891.328V25.5791Z" fill="white"/>
<path d="M857.819 37.3937L847.449 42.8125V38.5919L853.901 35.3125L857.819 37.3937ZM858.53 36.8013V25.4781L854.736 27.5031V34.78L858.528 36.7994L858.53 36.8013ZM836.17 37.3937L846.529 42.8088V38.5919L840.076 35.3125L836.17 37.3937ZM835.459 36.8013V25.4781L839.253 27.5031V34.78L835.459 36.8013ZM835.904 24.745L846.539 19.1875V23.2675L839.725 26.7269L839.67 26.755L835.904 24.745ZM858.081 24.745L847.449 19.1875V23.2675L854.264 26.725L854.319 26.7531L858.085 24.745H858.081Z" fill="#8ED6FB"/>
<path d="M846.55 37.6321L840.174 34.394V27.9853L846.55 31.3753V37.6321ZM847.46 37.6321L853.836 34.3978V27.9853L847.46 31.3753V37.6321ZM840.606 27.2503L847.005 23.999L853.403 27.2503L847.005 30.6553L840.606 27.2503Z" fill="#1C78C0"/>
<g clip-path="url(#clip2)">
<path d="M807.369 40.9453C807.291 40.9453 807.218 40.9174 807.151 40.8684L806.46 40.316C806.357 40.239 806.408 40.211 806.44 40.1971C806.58 40.1341 806.606 40.1201 806.751 40.0083C806.767 39.9942 806.788 40.0013 806.803 40.0152L807.333 40.4418C807.353 40.4558 807.379 40.4558 807.395 40.4418L809.466 38.8263C809.487 38.8124 809.498 38.7843 809.498 38.7494V35.5255C809.498 35.4904 809.487 35.4626 809.466 35.4485L807.395 33.84C807.374 33.826 807.348 33.826 807.333 33.84L805.261 35.4485C805.24 35.4625 805.23 35.4975 805.23 35.5254V38.7494C805.23 38.7774 805.24 38.8123 805.261 38.8263L805.827 39.2669C806.133 39.4767 806.325 39.2319 806.325 38.9872V35.8052C806.325 35.7632 806.351 35.7212 806.388 35.7212H806.652C806.684 35.7212 806.715 35.7562 806.715 35.8052V38.9872C806.715 39.5396 806.492 39.8614 806.102 39.8614C805.983 39.8614 805.889 39.8614 805.625 39.6865L805.079 39.2669C804.944 39.162 804.861 38.9662 804.861 38.7564V35.5324C804.861 35.3227 804.944 35.1268 805.079 35.0219L807.151 33.4064C807.281 33.3085 807.457 33.3085 807.587 33.4064L809.659 35.0219C809.794 35.1268 809.877 35.3227 809.877 35.5324V38.7564C809.877 38.9662 809.794 39.162 809.659 39.2669L807.587 40.8824C807.52 40.9244 807.442 40.9453 807.369 40.9453H807.369ZM808.008 38.7284C807.099 38.7284 806.912 38.169 806.912 37.6934C806.912 37.6514 806.938 37.6095 806.974 37.6095H807.244C807.276 37.6095 807.301 37.6374 807.301 37.6794C807.343 38.0501 807.462 38.2319 808.013 38.2319C808.449 38.2319 808.636 38.099 808.636 37.7843C808.636 37.6025 808.584 37.4697 807.904 37.3787C807.338 37.3017 806.985 37.1339 806.985 36.5255C806.985 35.959 807.338 35.6233 807.93 35.6233C808.594 35.6233 808.921 35.9311 808.963 36.6024C808.963 36.6234 808.958 36.6444 808.947 36.6654C808.937 36.6793 808.921 36.6933 808.906 36.6933H808.636C808.61 36.6933 808.584 36.6654 808.579 36.6304C808.516 36.2458 808.355 36.1199 807.93 36.1199C807.452 36.1199 807.395 36.3437 807.395 36.5115C807.395 36.7143 807.462 36.7772 808.106 36.8891C808.745 37.0011 809.046 37.1619 809.046 37.7633C809.041 38.3787 808.667 38.7284 808.008 38.7284Z" fill="#539E43"/>
<path d="M800.944 28.3366C800.944 28.2107 800.892 28.0917 800.809 28.0288L798.608 26.3225C798.571 26.2944 798.53 26.2805 798.488 26.2734H798.467C798.426 26.2734 798.384 26.2944 798.348 26.3225L796.147 28.0288C796.064 28.0917 796.012 28.2107 796.012 28.3366L796.017 32.9242C796.017 32.9872 796.043 33.0501 796.084 33.0781C796.126 33.1131 796.178 33.1131 796.214 33.0781L797.523 32.071C797.606 32.0081 797.658 31.8892 797.658 31.7633V29.6163C797.658 29.4905 797.709 29.3716 797.793 29.3087L798.348 28.875C798.39 28.8401 798.436 28.826 798.483 28.826C798.53 28.826 798.576 28.8401 798.613 28.875L799.168 29.3087C799.251 29.3716 799.303 29.4904 799.303 29.6163V31.7633C799.303 31.8892 799.355 32.0081 799.438 32.071L800.747 33.0781C800.788 33.1131 800.84 33.1131 800.882 33.0781C800.923 33.0501 800.949 32.9872 800.949 32.9242L800.944 28.3366Z" fill="#333333"/>
<path d="M811.522 22.021C811.481 21.993 811.429 21.993 811.392 22.021C811.351 22.056 811.325 22.1119 811.325 22.1748V26.7206C811.325 26.7625 811.309 26.8045 811.278 26.8325C811.247 26.8534 811.216 26.8534 811.185 26.8325L810.634 26.4059C810.594 26.375 810.548 26.3587 810.502 26.3587C810.456 26.3587 810.41 26.375 810.37 26.4059L808.168 28.1193C808.085 28.1822 808.033 28.3011 808.033 28.427V31.8467C808.033 31.9726 808.085 32.0916 808.168 32.1545L810.37 33.8679C810.41 33.8988 810.456 33.9151 810.502 33.9151C810.548 33.9151 810.594 33.8988 810.634 33.8679L812.836 32.1545C812.919 32.0916 812.971 31.9727 812.971 31.8467V23.3218C812.971 23.1889 812.919 23.0701 812.836 23.0071L811.522 22.021H811.522ZM811.32 30.7208C811.32 30.7558 811.309 30.7838 811.289 30.7977L810.536 31.3852C810.525 31.3921 810.514 31.3957 810.502 31.3957C810.49 31.3957 810.479 31.3921 810.468 31.3852L809.715 30.7977C809.695 30.7838 809.684 30.7488 809.684 30.7208V29.5459C809.684 29.5109 809.695 29.483 809.715 29.469L810.468 28.8815C810.479 28.8746 810.49 28.871 810.502 28.871C810.514 28.871 810.525 28.8746 810.536 28.8815L811.289 29.469C811.309 29.4829 811.32 29.518 811.32 29.5459V30.7208Z" fill="#333333"/>
<path d="M818.849 29.5176C818.932 29.4547 818.979 29.3358 818.979 29.2099V28.3777C818.979 28.2518 818.927 28.1329 818.849 28.07L816.664 26.3636C816.623 26.3327 816.578 26.3164 816.531 26.3164C816.485 26.3164 816.439 26.3327 816.399 26.3636L814.197 28.0769C814.114 28.1399 814.062 28.2588 814.062 28.3847V31.8044C814.062 31.9303 814.114 32.0492 814.197 32.1121L816.383 33.7905C816.466 33.8535 816.565 33.8535 816.643 33.7905L817.967 32.7976C818.008 32.7696 818.034 32.7066 818.034 32.6437C818.034 32.5808 818.008 32.5178 817.967 32.4898L815.755 30.7764C815.714 30.7415 815.688 30.6856 815.688 30.6226V29.5526C815.688 29.4897 815.714 29.4268 815.755 29.3988L816.446 28.8672C816.466 28.8501 816.489 28.841 816.513 28.841C816.537 28.841 816.56 28.8501 816.581 28.8672L817.271 29.3988C817.313 29.4337 817.339 29.4896 817.339 29.5526V30.3918C817.339 30.4548 817.365 30.5177 817.406 30.5457C817.448 30.5806 817.499 30.5806 817.541 30.5457L818.849 29.5176V29.5176Z" fill="#333333"/>
<path d="M816.497 29.3572C816.505 29.3503 816.514 29.3467 816.523 29.3467C816.532 29.3467 816.541 29.3503 816.549 29.3572L816.97 29.6858C816.985 29.6998 816.996 29.7208 816.996 29.7488V30.4061C816.996 30.4341 816.985 30.4551 816.97 30.4691L816.549 30.7978C816.541 30.8046 816.532 30.8082 816.523 30.8082C816.514 30.8082 816.505 30.8046 816.497 30.7978L816.077 30.4691C816.061 30.4551 816.051 30.4341 816.051 30.4061V29.7488C816.051 29.7208 816.061 29.6998 816.077 29.6858L816.497 29.3572V29.3572Z" fill="#539E43"/>
<mask id="mask6" mask-type="alpha" maskUnits="userSpaceOnUse" x="802" y="26" width="5" height="8">
<path d="M804.623 26.3783C804.583 26.3473 804.537 26.3311 804.491 26.3311C804.445 26.3311 804.399 26.3473 804.359 26.3783L802.173 28.0775C802.09 28.1405 802.043 28.2594 802.043 28.3852V31.7911C802.043 31.9169 802.095 32.0358 802.173 32.0988L804.359 33.7982C804.399 33.8291 804.445 33.8454 804.491 33.8454C804.537 33.8454 804.583 33.8291 804.623 33.7982L806.809 32.0988C806.892 32.0358 806.939 31.9169 806.939 31.7911V28.3853C806.939 28.2594 806.887 28.1405 806.809 28.0776L804.623 26.3783Z" fill="white"/>
</mask>
<g mask="url(#mask6)">
<path d="M804.623 26.3783C804.583 26.3473 804.537 26.3311 804.491 26.3311C804.445 26.3311 804.399 26.3473 804.359 26.3783L802.173 28.0775C802.09 28.1405 802.043 28.2594 802.043 28.3852V31.7911C802.043 31.9169 802.095 32.0358 802.173 32.0988L804.359 33.7982C804.399 33.8291 804.445 33.8454 804.491 33.8454C804.537 33.8454 804.583 33.8291 804.623 33.7982L806.809 32.0988C806.892 32.0358 806.939 31.9169 806.939 31.7911V28.3853C806.939 28.2594 806.887 28.1405 806.809 28.0776L804.623 26.3783Z" fill="url(#paint0_linear)"/>
<path d="M806.814 28.0781L804.618 26.3787C804.597 26.364 804.574 26.3523 804.551 26.3438L802.09 32.0225C802.11 32.056 802.135 32.0844 802.163 32.1064L804.359 33.8058C804.421 33.8547 804.494 33.8687 804.561 33.8407L806.872 28.1481C806.856 28.1201 806.835 28.0991 806.814 28.0781V28.0781Z" fill="url(#paint1_linear)"/>
<path fill-rule="evenodd" clip-rule="evenodd" d="M806.819 32.099C806.881 32.0501 806.928 31.9661 806.948 31.8752L804.539 26.3364C804.477 26.3225 804.41 26.3294 804.352 26.3784L802.172 28.0708L804.524 33.8474C804.558 33.8398 804.591 33.8257 804.622 33.8054L806.819 32.0991L806.819 32.099Z" fill="url(#paint2_linear)"/>
<path fill-rule="evenodd" clip-rule="evenodd" d="M806.819 32.0989L804.628 33.7984C804.597 33.8196 804.564 33.8338 804.529 33.8403L804.571 33.9452L807.001 32.0501V32.0081L806.938 31.8682C806.928 31.9661 806.881 32.05 806.819 32.0989V32.0989Z" fill="url(#paint3_linear)"/>
<path fill-rule="evenodd" clip-rule="evenodd" d="M806.819 32.0989L804.628 33.7984C804.597 33.8196 804.564 33.8338 804.529 33.8403L804.571 33.9452L807.001 32.0501V32.0081L806.938 31.8682C806.928 31.9661 806.881 32.05 806.819 32.0989V32.0989Z" fill="url(#paint4_linear)"/>
</g>
</g>
<path d="M691.667 228C693.416 228 694.833 226.657 694.833 225C694.833 223.343 693.416 222 691.667 222C689.918 222 688.5 223.343 688.5 225C688.5 226.657 689.918 228 691.667 228Z" fill="#19BCFE"/>
<path fill-rule="evenodd" clip-rule="evenodd" d="M685.333 234C686.173 234 686.978 233.684 687.572 233.121C688.166 232.559 688.499 231.796 688.499 231V228H685.333C684.493 228 683.687 228.316 683.094 228.879C682.5 229.441 682.166 230.204 682.166 231C682.166 231.796 682.5 232.559 683.094 233.121C683.687 233.684 684.493 234 685.333 234V234Z" fill="#09CF83"/>
<path fill-rule="evenodd" clip-rule="evenodd" d="M685.333 228H688.499V222H685.333C684.493 222 683.687 222.316 683.094 222.879C682.5 223.441 682.166 224.204 682.166 225C682.166 225.796 682.5 226.559 683.094 227.121C683.687 227.684 684.493 228 685.333 228V228Z" fill="#A259FF"/>
<path fill-rule="evenodd" clip-rule="evenodd" d="M685.333 222H688.499V216H685.333C684.493 216 683.687 216.316 683.094 216.879C682.5 217.441 682.166 218.204 682.166 219C682.166 219.796 682.5 220.559 683.094 221.121C683.687 221.684 684.493 222 685.333 222V222Z" fill="#F24E1E"/>
<path fill-rule="evenodd" clip-rule="evenodd" d="M691.667 222H688.5V216H691.667C692.507 216 693.312 216.316 693.906 216.879C694.5 217.441 694.833 218.204 694.833 219C694.833 219.796 694.5 220.559 693.906 221.121C693.312 221.684 692.507 222 691.667 222Z" fill="#FF7262"/>
<defs>
<linearGradient id="paint0_linear" x1="805.381" y1="27.6451" x2="801.861" y2="31.7518" gradientUnits="userSpaceOnUse">
<stop stop-color="#41873F"/>
<stop offset="0.3288" stop-color="#418B3D"/>
<stop offset="0.6352" stop-color="#419637"/>
<stop offset="0.9319" stop-color="#3FA92D"/>
<stop offset="1" stop-color="#3FAE2A"/>
</linearGradient>
<linearGradient id="paint1_linear" x1="804.159" y1="30.4876" x2="810.843" y2="27.7917" gradientUnits="userSpaceOnUse">
<stop offset="0.1376" stop-color="#41873F"/>
<stop offset="0.4032" stop-color="#54A044"/>
<stop offset="0.7136" stop-color="#66B848"/>
<stop offset="0.9081" stop-color="#6CC04A"/>
</linearGradient>
<linearGradient id="paint2_linear" x1="801.962" y1="30.0885" x2="807.02" y2="30.0885" gradientUnits="userSpaceOnUse">
<stop offset="0.09192" stop-color="#6CC04A"/>
<stop offset="0.2864" stop-color="#66B848"/>
<stop offset="0.5968" stop-color="#54A044"/>
<stop offset="0.8624" stop-color="#41873F"/>
</linearGradient>
<linearGradient id="paint3_linear" x1="801.963" y1="32.9124" x2="807.02" y2="32.9124" gradientUnits="userSpaceOnUse">
<stop offset="0.09192" stop-color="#6CC04A"/>
<stop offset="0.2864" stop-color="#66B848"/>
<stop offset="0.5968" stop-color="#54A044"/>
<stop offset="0.8624" stop-color="#41873F"/>
</linearGradient>
<linearGradient id="paint4_linear" x1="807.757" y1="27.4842" x2="805.497" y2="36.2765" gradientUnits="userSpaceOnUse">
<stop stop-color="#41873F"/>
<stop offset="0.3288" stop-color="#418B3D"/>
<stop offset="0.6352" stop-color="#419637"/>
<stop offset="0.9319" stop-color="#3FA92D"/>
<stop offset="1" stop-color="#3FAE2A"/>
</linearGradient>
<clipPath id="clip0">
<rect width="191.117" height="271.732" fill="white" transform="translate(215.463 58)"/>
</clipPath>
<clipPath id="clip1">
<rect width="21" height="19" fill="white" transform="translate(760 22)"/>
</clipPath>
<clipPath id="clip2">
<rect width="23" height="19" fill="white" transform="translate(796 22)"/>
</clipPath>
</defs>
</svg>
