<svg width="369" height="263" viewBox="0 0 369 263" fill="none" xmlns="http://www.w3.org/2000/svg">
<path d="M62.7849 154.136C64.2646 137.996 68.3517 122.212 74.8827 107.413C76.703 103.295 78.7065 99.2676 80.8932 95.3306C81.0029 95.1247 81.0293 94.8838 80.9669 94.6585C80.9045 94.4333 80.7581 94.2414 80.5587 94.1233C80.3592 94.0052 80.1224 93.9703 79.8979 94.0257C79.6735 94.0812 79.4791 94.2227 79.3558 94.4206C71.4036 108.76 65.8327 124.325 62.8655 140.495C62.0401 145.01 61.4198 149.557 61.0045 154.136C60.899 155.291 62.68 155.284 62.7849 154.136V154.136Z" fill="#E6E6E6"/>
<path d="M86.5 99C93.4036 99 99 94.0751 99 88C99 81.9249 93.4036 77 86.5 77C79.5964 77 74 81.9249 74 88C74 94.0751 79.5964 99 86.5 99Z" fill="#38F99C"/>
<path d="M63.2495 154.448C64.2853 144.129 67.1462 134.037 71.718 124.576C72.9921 121.943 74.3946 119.368 75.9253 116.851C76.002 116.719 76.0205 116.565 75.9768 116.421C75.9331 116.277 75.8307 116.154 75.6911 116.079C75.5515 116.003 75.3857 115.981 75.2286 116.016C75.0715 116.052 74.9355 116.142 74.8491 116.269C69.2826 125.437 65.3829 135.388 63.3059 145.726C62.7281 148.613 62.2939 151.52 62.0032 154.448C61.9293 155.186 63.176 155.182 63.2495 154.448V154.448Z" fill="#E6E6E6"/>
<path d="M79 119C83.4183 119 87 115.642 87 111.5C87 107.358 83.4183 104 79 104C74.5817 104 71 107.358 71 111.5C71 115.642 74.5817 119 79 119Z" fill="#38F99C"/>
<path d="M61.8956 154.057C55.9802 145.397 51.6211 135.884 48.9923 125.898C48.2622 123.118 47.6688 120.311 47.212 117.477C47.1856 117.331 47.0997 117.2 46.9723 117.112C46.8448 117.024 46.6859 116.985 46.5291 117.005C46.3722 117.025 46.2297 117.101 46.1315 117.217C46.0334 117.334 45.9873 117.482 46.003 117.629C47.6732 127.947 51.1398 137.937 56.2639 147.199C57.6965 149.785 59.2532 152.305 60.9339 154.76C61.3574 155.38 62.3164 154.672 61.8956 154.057Z" fill="#E6E6E6"/>
<path d="M46.5 119C50.6421 119 54 115.642 54 111.5C54 107.358 50.6421 104 46.5 104C42.3578 104 39 107.358 39 111.5C39 115.642 42.3578 119 46.5 119Z" fill="#38F99C"/>
<path d="M39 159.643V145.357C39.0017 143.937 39.5916 142.575 40.6404 141.571C41.6892 140.567 43.1113 140.002 44.5946 140H79.4054C80.8887 140.002 82.3107 140.567 83.3595 141.571C84.4083 142.575 84.9983 143.937 85 145.357V159.643C84.9983 161.063 84.4083 162.425 83.3595 163.429C82.3107 164.433 80.8887 164.998 79.4054 165H44.5946C43.1113 164.998 41.6892 164.433 40.6404 163.429C39.5916 162.425 39.0017 161.063 39 159.643Z" fill="#F2F2F2"/>
<path d="M78.4286 69H63.5714C62.0943 68.9984 60.6781 68.4338 59.6336 67.4302C58.5891 66.4266 58.0017 65.0659 58 63.6466V5.35345C58.0017 3.93412 58.5891 2.57339 59.6336 1.56977C60.6781 0.566153 62.0943 0.00159956 63.5714 0H78.4286C79.9057 0.00159956 81.3218 0.566153 82.3663 1.56977C83.4108 2.57339 83.9983 3.93412 84 5.35345V63.6466C83.9983 65.0659 83.4108 66.4266 82.3663 67.4302C81.3218 68.4338 79.9057 68.9984 78.4286 69V69Z" fill="#F2F2F2"/>
<path d="M83 11H58V16H83V11Z" fill="#CCCCCC"/>
<path d="M83 48H58V53H83V48Z" fill="#CCCCCC"/>
<path d="M117.214 69H101.786C100.252 68.9984 98.7811 68.4338 97.6964 67.4302C96.6118 66.4266 96.0017 65.0659 96 63.6466V5.35345C96.0017 3.93412 96.6118 2.57339 97.6964 1.56977C98.7811 0.566153 100.252 0.00159956 101.786 0H117.214C118.748 0.00159956 120.219 0.566153 121.303 1.56977C122.388 2.57339 122.998 3.93412 123 5.35345V63.6466C122.998 65.0659 122.388 66.4266 121.303 67.4302C120.219 68.4338 118.748 68.9984 117.214 69V69Z" fill="#F2F2F2"/>
<path d="M122 11H96V16H122V11Z" fill="#CCCCCC"/>
<path d="M122 48H96V53H122V48Z" fill="#CCCCCC"/>
<path d="M156.214 69H140.786C139.252 68.9984 137.781 68.4338 136.696 67.4302C135.612 66.4266 135.002 65.0659 135 63.6466V5.35345C135.002 3.93412 135.612 2.57339 136.696 1.56977C137.781 0.566153 139.252 0.00159956 140.786 0H156.214C157.748 0.00159956 159.219 0.566153 160.303 1.56977C161.388 2.57339 161.998 3.93412 162 5.35345V63.6466C161.998 65.0659 161.388 66.4266 160.303 67.4302C159.219 68.4338 157.748 68.9984 156.214 69V69Z" fill="#F2F2F2"/>
<path d="M161 11H136V16H161V11Z" fill="#CCCCCC"/>
<path d="M161 48H136V53H161V48Z" fill="#CCCCCC"/>
<path d="M176.214 165H160.786C159.252 164.998 157.781 164.434 156.696 163.43C155.612 162.427 155.002 161.066 155 159.647V101.353C155.002 99.9341 155.612 98.5734 156.696 97.5697C157.781 96.5661 159.252 96.0016 160.786 96H176.214C177.748 96.0016 179.219 96.5661 180.303 97.5697C181.388 98.5734 181.998 99.9341 182 101.353V159.647C181.998 161.066 181.388 162.427 180.303 163.43C179.219 164.434 177.748 164.998 176.214 165V165Z" fill="#F2F2F2"/>
<path d="M182 107H156V112H182V107Z" fill="#CCCCCC"/>
<path d="M182 144H156V149H182V144Z" fill="#CCCCCC"/>
<path d="M215 165H199C197.409 164.998 195.884 164.434 194.759 163.43C193.634 162.427 193.002 161.066 193 159.647V101.353C193.002 99.9341 193.634 98.5734 194.759 97.5697C195.884 96.5661 197.409 96.0016 199 96H215C216.591 96.0016 218.116 96.5661 219.241 97.5697C220.365 98.5734 220.998 99.9341 221 101.353V159.647C220.998 161.066 220.365 162.427 219.241 163.43C218.116 164.434 216.591 164.998 215 165Z" fill="#F2F2F2"/>
<path d="M254 166H238C236.409 165.998 234.884 165.426 233.759 164.407C232.634 163.389 232.002 162.009 232 160.569V101.431C232.002 99.9911 232.634 98.6107 233.759 97.5925C234.884 96.5743 236.409 96.0016 238 96H254C255.591 96.0016 257.116 96.5743 258.241 97.5925C259.365 98.6107 259.998 99.9911 260 101.431V160.569C259.998 162.009 259.365 163.389 258.241 164.407C257.116 165.426 255.591 165.998 254 166Z" fill="#F2F2F2"/>
<path d="M220 107H194V112H220V107Z" fill="#CCCCCC"/>
<path d="M259 108H232V113H259V108Z" fill="#CCCCCC"/>
<path d="M220 144H194V149H220V144Z" fill="#CCCCCC"/>
<path d="M259 144H232V149H259V144Z" fill="#CCCCCC"/>
<path d="M74.4286 261H59.5714C58.0943 260.998 56.6781 260.442 55.6336 259.453C54.5891 258.464 54.0017 257.123 54 255.724V198.276C54.0017 196.877 54.5891 195.536 55.6336 194.547C56.6781 193.558 58.0943 193.002 59.5714 193H74.4286C75.9057 193.002 77.3218 193.558 78.3663 194.547C79.4108 195.536 79.9983 196.877 80 198.276V255.724C79.9983 257.123 79.4108 258.464 78.3663 259.453C77.3218 260.442 75.9057 260.998 74.4286 261Z" fill="#F2F2F2"/>
<path d="M79 204H54V208H79V204Z" fill="#CCCCCC"/>
<path d="M79 241H54V245H79V241Z" fill="#CCCCCC"/>
<path d="M112.214 261H96.7857C95.2518 260.998 93.7811 260.442 92.6964 259.453C91.6118 258.464 91.0017 257.123 91 255.724V198.276C91.0017 196.877 91.6118 195.536 92.6964 194.547C93.7811 193.558 95.2518 193.002 96.7857 193H112.214C113.748 193.002 115.219 193.558 116.303 194.547C117.388 195.536 117.998 196.877 118 198.276V255.724C117.998 257.123 117.388 258.464 116.303 259.453C115.219 260.442 113.748 260.998 112.214 261V261Z" fill="#F2F2F2"/>
<path d="M117 204H91V208H117V204Z" fill="#CCCCCC"/>
<path d="M117 241H91V245H117V241Z" fill="#CCCCCC"/>
<path d="M193.429 69H178.571C177.094 68.9984 175.678 68.4338 174.634 67.4302C173.589 66.4266 173.002 65.0659 173 63.6466V5.35345C173.002 3.93412 173.589 2.57339 174.634 1.56977C175.678 0.566153 177.094 0.00159956 178.571 0H193.429C194.906 0.00159956 196.322 0.566153 197.366 1.56977C198.411 2.57339 198.998 3.93412 199 5.35345V63.6466C198.998 65.0659 198.411 66.4266 197.366 67.4302C196.322 68.4338 194.906 68.9984 193.429 69V69Z" fill="#F2F2F2"/>
<path d="M199 11H174V16H199V11Z" fill="#CCCCCC"/>
<path d="M199 48H174V53H199V48Z" fill="#CCCCCC"/>
<path d="M232.214 69H216.786C215.252 68.9984 213.781 68.4338 212.696 67.4302C211.612 66.4266 211.002 65.0659 211 63.6466V5.35345C211.002 3.93412 211.612 2.57339 212.696 1.56977C213.781 0.566153 215.252 0.00159956 216.786 0H232.214C233.748 0.00159956 235.219 0.566153 236.303 1.56977C237.388 2.57339 237.998 3.93412 238 5.35345V63.6466C237.998 65.0659 237.388 66.4266 236.303 67.4302C235.219 68.4338 233.748 68.9984 232.214 69Z" fill="#F2F2F2"/>
<path d="M238 11H212V16H238V11Z" fill="#CCCCCC"/>
<path d="M238 48H212V53H238V48Z" fill="#CCCCCC"/>
<path d="M271.214 69H255.786C254.252 68.9984 252.781 68.4338 251.696 67.4302C250.612 66.4266 250.002 65.0659 250 63.6466V5.35345C250.002 3.93412 250.612 2.57339 251.696 1.56977C252.781 0.566153 254.252 0.00159956 255.786 0H271.214C272.748 0.00159956 274.219 0.566153 275.303 1.56977C276.388 2.57339 276.998 3.93412 277 5.35345V63.6466C276.998 65.0659 276.388 66.4266 275.303 67.4302C274.219 68.4338 272.748 68.9984 271.214 69V69Z" fill="#F2F2F2"/>
<path d="M277 11H251V16H277V11Z" fill="#CCCCCC"/>
<path d="M277 48H251V53H277V48Z" fill="#CCCCCC"/>
<path d="M367.714 70H1.28571C0.944722 70 0.617714 69.9473 0.376596 69.8535C0.135477 69.7598 0 69.6326 0 69.5C0 69.3674 0.135477 69.2402 0.376596 69.1464C0.617714 69.0527 0.944722 69 1.28571 69H367.714C368.055 69 368.382 69.0527 368.623 69.1464C368.865 69.2402 369 69.3674 369 69.5C369 69.6326 368.865 69.7598 368.623 69.8535C368.382 69.9473 368.055 70 367.714 70Z" fill="#CCCCCC"/>
<path d="M367.714 167H1.28571C0.944722 167 0.617714 166.895 0.376596 166.707C0.135477 166.52 0 166.265 0 166C0 165.735 0.135477 165.48 0.376596 165.293C0.617714 165.105 0.944722 165 1.28571 165H367.714C368.055 165 368.382 165.105 368.623 165.293C368.865 165.48 369 165.735 369 166C369 166.265 368.865 166.52 368.623 166.707C368.382 166.895 368.055 167 367.714 167Z" fill="#CCCCCC"/>
<path d="M367.714 263H1.28571C0.944722 263 0.617714 262.895 0.376596 262.707C0.135477 262.52 0 262.265 0 262C0 261.735 0.135477 261.48 0.376596 261.293C0.617714 261.105 0.944722 261 1.28571 261H367.714C368.055 261 368.382 261.105 368.623 261.293C368.865 261.48 369 261.735 369 262C369 262.265 368.865 262.52 368.623 262.707C368.382 262.895 368.055 263 367.714 263Z" fill="#CCCCCC"/>
<path d="M274.874 250.151C276.428 234.275 280.719 218.749 287.577 204.194C289.488 200.143 291.592 196.181 293.888 192.309C294.003 192.106 294.031 191.869 293.965 191.648C293.9 191.426 293.746 191.237 293.537 191.121C293.327 191.005 293.078 190.971 292.843 191.025C292.607 191.08 292.403 191.219 292.274 191.414C283.924 205.518 278.074 220.828 274.959 236.732C274.092 241.174 273.441 245.647 273.005 250.151C272.894 251.287 274.764 251.28 274.874 250.151V250.151Z" fill="#E6E6E6"/>
<path d="M298.5 195C304.851 195 310 190.075 310 184C310 177.925 304.851 173 298.5 173C292.149 173 287 177.925 287 184C287 190.075 292.149 195 298.5 195Z" fill="#38F99C"/>
<path d="M276.249 250.448C277.285 240.129 280.146 230.037 284.718 220.576C285.992 217.943 287.395 215.368 288.925 212.851C289.002 212.719 289.02 212.565 288.977 212.421C288.933 212.277 288.831 212.154 288.691 212.079C288.552 212.003 288.386 211.981 288.229 212.016C288.072 212.052 287.935 212.142 287.849 212.269C282.283 221.437 278.383 231.388 276.306 241.726C275.728 244.613 275.294 247.52 275.003 250.448C274.929 251.186 276.176 251.182 276.249 250.448V250.448Z" fill="#E6E6E6"/>
<path d="M291.5 215C295.642 215 299 211.642 299 207.5C299 203.358 295.642 200 291.5 200C287.358 200 284 203.358 284 207.5C284 211.642 287.358 215 291.5 215Z" fill="#38F99C"/>
<path d="M274.896 250.057C268.98 241.397 264.621 231.884 261.992 221.898C261.262 219.118 260.669 216.311 260.212 213.477C260.186 213.331 260.1 213.2 259.972 213.112C259.845 213.024 259.686 212.985 259.529 213.005C259.372 213.025 259.23 213.101 259.132 213.217C259.033 213.334 258.987 213.482 259.003 213.629C260.673 223.947 264.14 233.937 269.264 243.199C270.697 245.785 272.253 248.305 273.934 250.76C274.357 251.38 275.316 250.672 274.896 250.057Z" fill="#E6E6E6"/>
<path d="M258 214C262.418 214 266 210.866 266 207C266 203.134 262.418 200 258 200C253.582 200 250 203.134 250 207C250 210.866 253.582 214 258 214Z" fill="#38F99C"/>
<path d="M250 255.643V241.357C250.002 239.937 250.617 238.575 251.712 237.571C252.806 236.567 254.29 236.002 255.838 236H292.162C293.71 236.002 295.194 236.567 296.288 237.571C297.383 238.575 297.998 239.937 298 241.357V255.643C297.998 257.063 297.383 258.425 296.288 259.429C295.194 260.433 293.71 260.998 292.162 261H255.838C254.29 260.998 252.806 260.433 251.712 259.429C250.617 258.425 250.002 257.063 250 255.643Z" fill="#F2F2F2"/>
<path d="M253.217 129.633C252.518 129.639 251.912 129.885 251.404 130.252C251.217 129.708 251.029 129.232 250.998 128.876C250.963 128.464 250.92 128.211 250.963 127.718C251.006 127.225 251.201 126.526 251.201 126.468C251.197 126.417 251.158 126.165 250.756 126.159C250.353 126.153 250.006 126.274 249.967 126.428C249.928 126.583 249.849 126.939 249.799 127.305C249.728 127.844 248.994 129.753 248.576 130.757C248.439 130.367 248.322 130.023 248.299 129.748C248.263 129.335 248.22 129.083 248.263 128.59C248.306 128.097 248.502 127.397 248.502 127.34C248.498 127.288 248.459 127.036 248.056 127.03C247.654 127.025 247.306 127.145 247.267 127.3C247.228 127.455 247.185 127.821 247.099 128.177C247.017 128.532 246.041 131.72 245.787 132.551C245.658 132.975 245.544 133.314 245.462 133.543C245.38 133.772 245.458 133.56 245.451 133.583C245.38 133.778 245.341 133.887 245.341 133.887V133.893C245.287 134.036 245.228 134.173 245.201 134.173C245.181 134.173 245.142 133.789 245.208 133.262C245.353 132.156 245.705 130.43 245.701 130.367C245.701 130.338 245.767 130.034 245.474 129.88C245.189 129.725 245.087 129.983 245.064 129.983C245.04 129.983 245.021 130.075 245.021 130.075C245.021 130.075 245.337 128.131 244.415 128.131C243.837 128.131 243.04 129.054 242.646 129.897C242.396 130.097 241.864 130.522 241.302 130.975C241.087 131.147 240.864 131.33 240.653 131.496L240.61 131.427C239.493 129.679 237.427 128.441 237.512 126.09C237.544 125.236 237.747 122.983 241.482 120.254C244.54 118.018 246.99 118.632 247.416 119.996C248.021 121.945 246.107 125.568 242.927 126.09C241.716 126.291 241.079 125.603 240.919 125.345C240.751 125.075 240.728 125.064 240.665 125.115C240.564 125.196 240.626 125.437 240.665 125.58C240.759 125.941 241.15 126.583 241.814 126.904C242.396 127.185 243.818 127.34 245.537 126.365C247.463 125.27 248.967 122.232 248.525 119.692C248.076 117.107 245.154 116.258 242.392 117.697C240.747 118.557 238.966 119.899 237.684 121.659C236.161 123.745 235.919 125.568 236.02 126.325C236.376 129.025 238.911 130.785 239.927 132.087C239.876 132.127 239.829 132.167 239.786 132.201C239.278 132.568 237.344 134.053 236.86 135.624C236.313 137.401 236.946 138.68 237.368 138.852C238.673 139.385 240.009 138.427 240.731 136.851C241.45 135.274 241.364 133.228 241.032 132.293L241.021 132.259L241.419 131.915C241.677 131.691 241.931 131.485 242.153 131.307C242.028 131.806 241.939 132.396 241.892 133.256C241.837 134.265 242.118 135.572 242.489 136.088C242.654 136.312 242.849 136.318 242.97 136.318C243.4 136.318 243.595 135.796 243.81 135.171C244.076 134.408 244.31 133.526 244.31 133.526C244.31 133.526 244.017 135.916 244.818 135.916C245.111 135.916 245.404 135.36 245.537 135.073V135.079C245.537 135.079 245.544 135.062 245.56 135.022C245.576 134.986 245.592 134.95 245.607 134.913V134.902C245.724 134.603 245.986 133.921 246.377 132.792C246.88 131.336 247.365 129.513 247.365 129.513C247.365 129.513 247.412 129.96 247.556 130.694C247.642 131.129 247.83 131.605 247.974 132.07C247.857 132.31 247.787 132.448 247.787 132.448L247.791 132.454C247.697 132.637 247.591 132.832 247.482 133.027C247.084 133.726 246.607 134.523 246.545 134.753C246.47 135.022 246.486 135.223 246.63 135.383C246.736 135.498 246.923 135.521 247.123 135.498C247.482 135.463 247.732 135.332 247.857 135.251C248.052 135.148 248.275 134.993 248.49 134.764C248.881 134.34 249.119 133.738 249.096 132.935C249.084 132.494 248.986 132.058 248.865 131.645C248.9 131.571 248.935 131.496 248.97 131.416C249.588 130.092 250.064 128.636 250.064 128.636C250.064 128.636 250.111 129.083 250.256 129.817C250.33 130.189 250.478 130.596 250.611 130.998C250.033 131.691 249.67 132.494 249.545 133.021C249.314 133.996 249.494 134.437 249.834 134.541C249.986 134.586 250.205 134.483 250.369 134.38C250.572 134.283 250.818 134.116 251.045 133.87C251.436 133.446 251.811 132.855 251.791 132.058C251.779 131.691 251.713 131.33 251.623 130.986C252.115 130.688 252.752 130.516 253.561 130.659C255.299 130.957 255.643 132.551 255.577 133.216C255.51 133.881 255.147 134.248 255.026 134.363C254.905 134.472 254.866 134.512 254.877 134.592C254.893 134.713 254.948 134.707 255.053 134.684C255.198 134.649 255.967 134.139 255.998 132.913C256.045 131.336 255.026 129.616 253.217 129.633ZM239.81 136.266C239.235 137.189 238.427 137.539 238.083 137.241C237.712 136.925 237.856 135.567 238.563 134.586C238.993 133.99 239.552 133.44 239.919 133.101C240.001 133.027 240.126 132.918 240.274 132.786C240.298 132.763 240.313 132.752 240.313 132.752C240.341 132.729 240.372 132.7 240.403 132.671C240.665 134.07 240.415 135.297 239.81 136.266ZM244.009 132.075C243.81 132.792 243.388 134.632 243.134 134.529C242.915 134.443 242.782 133.05 243.091 131.674C243.247 130.98 243.579 130.155 243.775 129.834C244.091 129.318 244.435 129.146 244.521 129.358C244.622 129.633 244.134 131.628 244.009 132.075ZM247.474 134.506C247.388 134.569 247.31 134.615 247.275 134.581C247.248 134.558 247.31 134.472 247.31 134.472C247.31 134.472 247.744 133.789 247.916 133.474C248.013 133.291 248.131 133.079 248.256 132.838V132.907C248.256 133.732 247.716 134.282 247.474 134.506ZM250.146 133.612C250.084 133.543 250.092 133.331 250.303 132.666C250.385 132.402 250.572 131.961 250.896 131.542C250.935 131.714 250.959 131.88 250.955 132.035C250.951 133.067 250.451 133.451 250.146 133.612Z" fill="#CF649A"/>
<path d="M95 231.679C95 232.961 96.0969 234 97.4499 234H111.55C112.903 234 114 232.961 114 231.679V218.321C114 217.039 112.903 216 111.55 216H97.45C96.0967 216 95 217.039 95 218.321V231.679V231.679Z" fill="#563D7C"/>
<path d="M102.879 223.962V221.413H105.248C105.473 221.413 105.691 221.431 105.9 221.466C106.11 221.502 106.295 221.566 106.456 221.657C106.617 221.749 106.746 221.876 106.843 222.039C106.939 222.202 106.988 222.41 106.988 222.665C106.988 223.123 106.843 223.453 106.553 223.657C106.263 223.86 105.892 223.962 105.441 223.962H102.879V223.962ZM100.35 219.551V230.449H105.924C106.44 230.449 106.942 230.388 107.431 230.266C107.92 230.144 108.355 229.956 108.736 229.701C109.117 229.447 109.421 229.119 109.646 228.717C109.872 228.315 109.985 227.839 109.985 227.29C109.985 226.608 109.81 226.025 109.461 225.542C109.112 225.059 108.583 224.72 107.874 224.527C108.389 224.293 108.779 223.993 109.042 223.626C109.305 223.26 109.437 222.802 109.437 222.252C109.437 221.744 109.348 221.316 109.171 220.97C108.994 220.624 108.744 220.347 108.422 220.138C108.099 219.93 107.713 219.78 107.262 219.688C106.81 219.597 106.311 219.551 105.763 219.551H100.35V219.551ZM102.879 228.587V225.595H105.634C106.182 225.595 106.623 225.715 106.956 225.954C107.288 226.193 107.455 226.593 107.455 227.152C107.455 227.437 107.404 227.671 107.302 227.854C107.2 228.038 107.063 228.183 106.891 228.289C106.719 228.396 106.52 228.473 106.295 228.518C106.069 228.564 105.833 228.587 105.586 228.587H102.879V228.587Z" fill="white"/>
<path d="M198.25 117L199.844 137.7L207 140L214.154 137.701L215.75 117H198.25Z" fill="#2196F3"/>
<path d="M212.342 123.77L212.141 126.37L211.534 134.166L207 135.607L206.996 135.609L202.465 134.166L202.149 130.089H204.369L204.534 132.203L206.997 132.968L206.999 132.967L209.466 132.202L209.802 128.679L202.042 128.703L201.822 126.294L209.989 126.183L210.154 123.604L201.604 123.632L201.46 121.232H212.54L212.342 123.77Z" fill="#FAFAFA"/>
<path d="M61 19H80V44H61V19Z" fill="#F7DF1E"/>
<path d="M67.1075 40.371L68.4829 39.2954C68.7482 39.9033 68.9896 40.4177 69.5686 40.4177C70.1236 40.4177 70.4736 40.1372 70.4736 39.046V31.6248H72.1626V39.0768C72.1626 41.3374 71.1371 42.3664 69.641 42.3664C68.2899 42.3664 67.5056 41.4621 67.1074 40.3708L67.1075 40.371ZM73.08 40.1371L74.4552 39.1082C74.8172 39.8722 75.2878 40.4334 76.1202 40.4334C76.8201 40.4334 77.2663 39.9812 77.2663 39.3576C77.2663 38.6093 76.8078 38.3442 76.0357 37.9078L75.6135 37.6737C74.395 37.0036 73.5867 36.1616 73.5867 34.3843C73.5867 32.7473 74.5518 31.5 76.0599 31.5C77.1337 31.5 77.9058 31.9834 78.4607 33.2462L77.1456 34.3376C76.856 33.6672 76.5425 33.4022 76.0599 33.4022C75.5652 33.4022 75.2515 33.8076 75.2515 34.3376C75.2515 34.9924 75.5652 35.2576 76.289 35.6629L76.7112 35.8967C78.147 36.6919 78.9553 37.5025 78.9553 39.3265C78.9553 41.291 77.7609 42.3667 76.1563 42.3667C74.588 42.3667 73.5745 41.4001 73.0799 40.1372" fill="black"/>
<path d="M108.972 33.611C109.999 33.611 110.832 32.7434 110.832 31.6732C110.832 30.6029 109.999 29.7354 108.972 29.7354C107.945 29.7354 107.112 30.6029 107.112 31.6732C107.112 32.7434 107.945 33.611 108.972 33.611Z" fill="#61DAFB"/>
<path d="M116.036 28.4773C115.677 28.3413 115.302 28.2054 114.911 28.0864C115.008 27.6784 115.09 27.2704 115.155 26.8795C115.498 24.6357 115.123 23.0548 114.079 22.4429C113.769 22.2559 113.426 22.1709 113.034 22.1709C111.893 22.1709 110.441 23.0548 108.972 24.5337C107.504 23.0548 106.052 22.1709 104.91 22.1709C104.519 22.1709 104.176 22.2559 103.866 22.4429C102.822 23.0718 102.447 24.6527 102.789 26.8795C102.855 27.2704 102.936 27.6784 103.034 28.0864C102.642 28.2054 102.267 28.3243 101.908 28.4773C99.8691 29.2933 98.7598 30.4152 98.7598 31.673C98.7598 32.9309 99.8854 34.0528 101.908 34.8688C102.267 35.0047 102.642 35.1407 103.034 35.2597C102.936 35.6677 102.855 36.0757 102.789 36.4666C102.447 38.7104 102.822 40.2913 103.866 40.9032C104.176 41.0902 104.519 41.1752 104.91 41.1752C106.068 41.1752 107.52 40.2913 108.972 38.8124C110.441 40.2913 111.893 41.1752 113.034 41.1752C113.426 41.1752 113.769 41.0902 114.079 40.9032C115.123 40.2743 115.498 38.6934 115.155 36.4666C115.09 36.0757 115.008 35.6677 114.911 35.2597C115.302 35.1407 115.677 35.0217 116.036 34.8688C118.075 34.0528 119.185 32.9309 119.185 31.673C119.185 30.4152 118.075 29.2933 116.036 28.4773ZM113.622 23.2928C114.291 23.7008 114.519 24.9586 114.242 26.7435C114.193 27.1005 114.111 27.4744 114.013 27.8654C113.165 27.6614 112.268 27.5254 111.322 27.4404C110.767 26.6245 110.196 25.8936 109.625 25.2306C110.832 23.9897 112.056 23.1398 113.051 23.1398C113.263 23.1398 113.459 23.1908 113.622 23.2928V23.2928ZM111.795 33.3729C111.501 33.9168 111.158 34.4608 110.799 35.0047C110.196 35.0557 109.592 35.0727 108.972 35.0727C108.336 35.0727 107.732 35.0557 107.145 35.0047C106.786 34.4608 106.46 33.9168 106.166 33.3729C105.856 32.8119 105.563 32.234 105.302 31.673C105.563 31.1121 105.856 30.5341 106.166 29.9732C106.46 29.4292 106.803 28.8853 107.161 28.3413C107.765 28.2904 108.369 28.2734 108.989 28.2734C109.625 28.2734 110.228 28.2904 110.816 28.3413C111.175 28.8853 111.501 29.4292 111.795 29.9732C112.105 30.5341 112.398 31.1121 112.659 31.673C112.382 32.234 112.105 32.7949 111.795 33.3729ZM113.149 32.8119C113.393 33.4069 113.589 33.9848 113.769 34.5628C113.214 34.6988 112.627 34.8008 112.007 34.8858C112.202 34.5628 112.415 34.2228 112.594 33.8659C112.79 33.5089 112.969 33.1519 113.149 32.8119ZM108.972 37.4185C108.581 36.9766 108.206 36.5006 107.847 36.0077C108.222 36.0247 108.597 36.0417 108.972 36.0417C109.348 36.0417 109.723 36.0247 110.098 36.0077C109.739 36.5006 109.364 36.9766 108.972 37.4185ZM105.938 34.8688C105.318 34.7838 104.731 34.6818 104.176 34.5458C104.355 33.9848 104.551 33.3899 104.796 32.7949C104.975 33.1349 105.155 33.4919 105.351 33.8319C105.546 34.2058 105.742 34.5288 105.938 34.8688V34.8688ZM104.796 30.5341C104.551 29.9392 104.355 29.3613 104.176 28.7833C104.731 28.6473 105.318 28.5453 105.938 28.4603C105.742 28.7833 105.53 29.1233 105.351 29.4802C105.155 29.8372 104.975 30.1942 104.796 30.5341V30.5341ZM108.972 25.9276C109.364 26.3695 109.739 26.8455 110.098 27.3384C109.723 27.3214 109.348 27.3044 108.972 27.3044C108.597 27.3044 108.222 27.3214 107.847 27.3384C108.206 26.8455 108.581 26.3695 108.972 25.9276V25.9276ZM112.594 29.4972L112.007 28.4773C112.627 28.5623 113.214 28.6643 113.769 28.8003C113.589 29.3613 113.393 29.9562 113.149 30.5511C112.969 30.1942 112.79 29.8372 112.594 29.4972V29.4972ZM103.703 26.7435C103.426 24.9586 103.654 23.7008 104.323 23.2928C104.486 23.1908 104.682 23.1398 104.894 23.1398C105.873 23.1398 107.096 23.9727 108.32 25.2306C107.749 25.8766 107.178 26.6245 106.623 27.4404C105.677 27.5254 104.78 27.6784 103.931 27.8654C103.833 27.4744 103.768 27.1005 103.703 26.7435ZM99.6733 31.673C99.6733 30.8741 100.603 30.0242 102.235 29.3953C102.561 29.2593 102.92 29.1403 103.279 29.0383C103.54 29.8882 103.866 30.7891 104.258 31.69C103.866 32.591 103.523 33.4749 103.279 34.3248C101.027 33.6449 99.6733 32.625 99.6733 31.673V31.673ZM104.323 40.0533C103.654 39.6453 103.426 38.3874 103.703 36.6026C103.752 36.2456 103.833 35.8717 103.931 35.4807C104.78 35.6847 105.677 35.8207 106.623 35.9057C107.178 36.7216 107.749 37.4525 108.32 38.1155C107.113 39.3564 105.889 40.2063 104.894 40.2063C104.682 40.2063 104.486 40.1553 104.323 40.0533ZM114.242 36.6026C114.519 38.3874 114.291 39.6453 113.622 40.0533C113.459 40.1553 113.263 40.2063 113.051 40.2063C112.072 40.2063 110.848 39.3734 109.625 38.1155C110.196 37.4695 110.767 36.7216 111.322 35.9057C112.268 35.8207 113.165 35.6677 114.013 35.4807C114.111 35.8717 114.176 36.2456 114.242 36.6026V36.6026ZM115.71 33.9508C115.384 34.0868 115.025 34.2058 114.666 34.3078C114.405 33.4579 114.079 32.557 113.687 31.656C114.079 30.7551 114.421 29.8712 114.666 29.0213C116.917 29.7012 118.271 30.7211 118.271 31.673C118.271 32.472 117.325 33.3219 115.71 33.9508V33.9508Z" fill="#61DAFB"/>
<path d="M161.773 137.664L160.172 117H177.789L176.188 137.664L168.961 140" fill="#E34F26"/>
<path d="M169 138.203L174.82 136.361L176.187 118.662H169" fill="#EF652A"/>
<path d="M169 126.344H166.07L165.875 123.738H169V121.223H163.453L164.039 128.904H169V126.344ZM168.961 132.947L166.5 132.184L166.344 130.162H164.156L164.43 134.16L168.961 135.598V132.947Z" fill="#EBEBEB"/>
<path d="M168.961 126.344V128.904H171.695L171.422 132.184L168.961 132.947V135.598L173.492 134.16L174.117 126.344H168.961ZM168.961 121.223V123.738H174.312L174.508 121.223H168.961Z" fill="white"/>
<g clip-path="url(#clip0)">
<path d="M152.551 35.2178C153.326 35.1417 153.914 34.5076 153.887 33.7465C153.86 32.9856 153.192 32.3768 152.39 32.3768H152.337C151.508 32.4022 150.867 33.0617 150.894 33.848C150.921 34.2285 151.081 34.5583 151.321 34.7865C150.413 36.4861 149.023 37.7291 146.939 38.7691C145.523 39.4793 144.053 39.733 142.583 39.5555C141.38 39.4033 140.445 38.896 139.857 38.0588C139.002 36.8159 138.922 35.4714 139.643 34.1271C140.151 33.1631 140.953 32.4528 141.461 32.0977C141.354 31.768 141.193 31.2099 141.113 30.8041C137.238 33.4676 137.639 37.0696 138.815 38.7691C139.697 40.0375 141.487 40.8238 143.465 40.8238C143.999 40.8238 144.534 40.773 145.068 40.6463C148.489 40.0121 151.081 38.0842 152.551 35.2178V35.2178ZM157.254 32.0724C155.223 29.8148 152.23 28.5719 148.81 28.5719H148.382C148.141 28.1153 147.634 27.8108 147.072 27.8108H147.019C146.191 27.8362 145.549 28.4957 145.576 29.2821C145.603 30.0431 146.271 30.6519 147.072 30.6519H147.126C147.714 30.6265 148.222 30.2714 148.435 29.7894H148.916C150.947 29.7894 152.871 30.3474 154.609 31.4382C155.945 32.2753 156.907 33.3661 157.441 34.6851C157.895 35.7505 157.869 36.7905 157.388 37.6784C156.639 39.0227 155.383 39.7584 153.727 39.7584C152.658 39.7584 151.642 39.454 151.108 39.2257C150.814 39.4793 150.279 39.8852 149.905 40.1389C151.054 40.6462 152.23 40.9252 153.352 40.9252C155.918 40.9252 157.815 39.5808 158.537 38.2364C159.312 36.7651 159.258 34.2285 157.254 32.0724V32.0724ZM143.679 35.649C143.705 36.41 144.373 37.0187 145.175 37.0187H145.229C146.057 36.9934 146.698 36.3338 146.672 35.5475C146.645 34.7865 145.977 34.1777 145.175 34.1777H145.122C145.068 34.1777 144.988 34.1777 144.935 34.203C143.839 32.4782 143.385 30.6011 143.545 28.5718C143.652 27.0498 144.186 25.7307 145.122 24.6399C145.897 23.7014 147.393 23.2448 148.409 23.2195C151.241 23.1687 152.444 26.5171 152.524 27.8615C152.871 27.9376 153.459 28.1152 153.86 28.242C153.54 24.1327 150.867 22.002 148.302 22.002C145.897 22.002 143.679 23.6508 142.797 26.0859C141.567 29.3328 142.369 32.4528 143.866 34.9134C143.732 35.0909 143.652 35.37 143.679 35.649V35.649Z" fill="#764ABC"/>
</g>
<path d="M252 23V38.3827H258.672V40.9614H264V38.3827H276V23H252Z" fill="#CB3837"/>
<path d="M255.985 25.5791H253.344V35.8046H255.985V28.1577H257.328V35.8046H258.672V25.5791H255.985ZM260.016 25.5791V38.3832H262.703V35.8046H265.344V25.5791H260.016ZM264 33.226H262.703V28.1577H264V33.226ZM269.328 25.5791H266.687V35.8046H269.328V28.1577H270.672V35.8046H272.016V28.1577H273.359V35.8046H274.703V25.5791H269.328V25.5791Z" fill="white"/>
<path d="M235.818 37.3937L225.448 42.8125V38.5919L231.9 35.3125L235.818 37.3937ZM236.529 36.8013V25.4781L232.735 27.5031V34.78L236.527 36.7994L236.529 36.8013ZM214.169 37.3937L224.528 42.8088V38.5919L218.075 35.3125L214.169 37.3937ZM213.458 36.8013V25.4781L217.252 27.5031V34.78L213.458 36.8013ZM213.903 24.745L224.538 19.1875V23.2675L217.724 26.7269L217.669 26.755L213.903 24.745ZM236.08 24.745L225.448 19.1875V23.2675L232.263 26.725L232.318 26.7531L236.084 24.745H236.08Z" fill="#8ED6FB"/>
<path d="M224.55 37.6321L218.174 34.394V27.9853L224.55 31.3753V37.6321ZM225.46 37.6321L231.836 34.3978V27.9853L225.46 31.3753V37.6321ZM218.606 27.2503L225.005 23.999L231.403 27.2503L225.005 30.6553L218.606 27.2503Z" fill="#1C78C0"/>
<g clip-path="url(#clip1)">
<path d="M185.371 40.9453C185.293 40.9453 185.22 40.9174 185.153 40.8684L184.462 40.316C184.359 40.239 184.41 40.211 184.442 40.1971C184.582 40.1341 184.608 40.1201 184.753 40.0083C184.769 39.9942 184.789 40.0013 184.805 40.0152L185.335 40.4418C185.355 40.4558 185.381 40.4558 185.397 40.4418L187.468 38.8263C187.489 38.8124 187.5 38.7843 187.5 38.7494V35.5255C187.5 35.4904 187.489 35.4626 187.468 35.4485L185.397 33.84C185.376 33.826 185.35 33.826 185.335 33.84L183.263 35.4485C183.242 35.4625 183.232 35.4975 183.232 35.5254V38.7494C183.232 38.7774 183.242 38.8123 183.263 38.8263L183.829 39.2669C184.135 39.4767 184.327 39.2319 184.327 38.9872V35.8052C184.327 35.7632 184.353 35.7212 184.39 35.7212H184.654C184.686 35.7212 184.717 35.7562 184.717 35.8052V38.9872C184.717 39.5396 184.493 39.8614 184.104 39.8614C183.985 39.8614 183.891 39.8614 183.626 39.6865L183.081 39.2669C182.946 39.162 182.863 38.9662 182.863 38.7564V35.5324C182.863 35.3227 182.946 35.1268 183.081 35.0219L185.153 33.4064C185.283 33.3085 185.459 33.3085 185.589 33.4064L187.661 35.0219C187.796 35.1268 187.879 35.3227 187.879 35.5324V38.7564C187.879 38.9662 187.796 39.162 187.661 39.2669L185.589 40.8824C185.521 40.9244 185.444 40.9453 185.371 40.9453H185.371ZM186.01 38.7284C185.101 38.7284 184.914 38.169 184.914 37.6934C184.914 37.6514 184.94 37.6095 184.976 37.6095H185.246C185.277 37.6095 185.303 37.6374 185.303 37.6794C185.345 38.0501 185.464 38.2319 186.015 38.2319C186.451 38.2319 186.638 38.099 186.638 37.7843C186.638 37.6025 186.586 37.4697 185.906 37.3787C185.34 37.3017 184.987 37.1339 184.987 36.5255C184.987 35.959 185.34 35.6233 185.932 35.6233C186.596 35.6233 186.923 35.9311 186.965 36.6024C186.965 36.6234 186.96 36.6444 186.949 36.6654C186.939 36.6793 186.923 36.6933 186.908 36.6933H186.638C186.612 36.6933 186.586 36.6654 186.581 36.6304C186.518 36.2458 186.357 36.1199 185.932 36.1199C185.454 36.1199 185.397 36.3437 185.397 36.5115C185.397 36.7143 185.464 36.7772 186.108 36.8891C186.747 37.0011 187.048 37.1619 187.048 37.7633C187.043 38.3787 186.669 38.7284 186.01 38.7284Z" fill="#539E43"/>
<path d="M178.945 28.3366C178.945 28.2107 178.893 28.0917 178.81 28.0288L176.609 26.3225C176.572 26.2944 176.531 26.2805 176.489 26.2734H176.468C176.427 26.2734 176.385 26.2944 176.349 26.3225L174.148 28.0288C174.065 28.0917 174.013 28.2107 174.013 28.3366L174.018 32.9242C174.018 32.9872 174.044 33.0501 174.085 33.0781C174.127 33.1131 174.179 33.1131 174.215 33.0781L175.524 32.071C175.607 32.0081 175.659 31.8892 175.659 31.7633V29.6163C175.659 29.4905 175.71 29.3716 175.794 29.3087L176.349 28.875C176.391 28.8401 176.437 28.826 176.484 28.826C176.531 28.826 176.577 28.8401 176.614 28.875L177.169 29.3087C177.252 29.3716 177.304 29.4904 177.304 29.6163V31.7633C177.304 31.8892 177.356 32.0081 177.439 32.071L178.748 33.0781C178.789 33.1131 178.841 33.1131 178.883 33.0781C178.924 33.0501 178.95 32.9872 178.95 32.9242L178.945 28.3366Z" fill="#333333"/>
<path d="M189.523 22.021C189.482 21.993 189.43 21.993 189.393 22.021C189.352 22.056 189.326 22.1119 189.326 22.1748V26.7206C189.326 26.7625 189.31 26.8045 189.279 26.8325C189.248 26.8534 189.217 26.8534 189.186 26.8325L188.635 26.4059C188.595 26.375 188.549 26.3587 188.503 26.3587C188.457 26.3587 188.411 26.375 188.371 26.4059L186.169 28.1193C186.086 28.1822 186.034 28.3011 186.034 28.427V31.8467C186.034 31.9726 186.086 32.0916 186.169 32.1545L188.371 33.8679C188.411 33.8988 188.457 33.9151 188.503 33.9151C188.549 33.9151 188.595 33.8988 188.635 33.8679L190.837 32.1545C190.92 32.0916 190.972 31.9727 190.972 31.8467V23.3218C190.972 23.1889 190.92 23.0701 190.837 23.0071L189.523 22.021H189.523ZM189.321 30.7208C189.321 30.7558 189.31 30.7838 189.289 30.7977L188.537 31.3852C188.526 31.3921 188.515 31.3957 188.503 31.3957C188.491 31.3957 188.48 31.3921 188.469 31.3852L187.716 30.7977C187.696 30.7838 187.685 30.7488 187.685 30.7208V29.5459C187.685 29.5109 187.696 29.483 187.716 29.469L188.469 28.8815C188.48 28.8746 188.491 28.871 188.503 28.871C188.515 28.871 188.526 28.8746 188.537 28.8815L189.289 29.469C189.31 29.4829 189.321 29.518 189.321 29.5459V30.7208Z" fill="#333333"/>
<path d="M196.849 29.5176C196.932 29.4547 196.979 29.3358 196.979 29.2099V28.3777C196.979 28.2518 196.927 28.1329 196.849 28.07L194.664 26.3636C194.623 26.3327 194.578 26.3164 194.531 26.3164C194.485 26.3164 194.439 26.3327 194.399 26.3636L192.197 28.0769C192.114 28.1399 192.062 28.2588 192.062 28.3847V31.8044C192.062 31.9303 192.114 32.0492 192.197 32.1121L194.383 33.7905C194.466 33.8535 194.565 33.8535 194.643 33.7905L195.967 32.7976C196.008 32.7696 196.034 32.7066 196.034 32.6437C196.034 32.5808 196.008 32.5178 195.967 32.4898L193.755 30.7764C193.714 30.7415 193.688 30.6856 193.688 30.6226V29.5526C193.688 29.4897 193.714 29.4268 193.755 29.3988L194.446 28.8672C194.466 28.8501 194.489 28.841 194.513 28.841C194.537 28.841 194.56 28.8501 194.581 28.8672L195.271 29.3988C195.313 29.4337 195.339 29.4896 195.339 29.5526V30.3918C195.339 30.4548 195.365 30.5177 195.406 30.5457C195.448 30.5806 195.499 30.5806 195.541 30.5457L196.849 29.5176V29.5176Z" fill="#333333"/>
<path d="M194.498 29.3572C194.506 29.3503 194.515 29.3467 194.524 29.3467C194.533 29.3467 194.542 29.3503 194.55 29.3572L194.971 29.6858C194.986 29.6998 194.997 29.7208 194.997 29.7488V30.4061C194.997 30.4341 194.986 30.4551 194.971 30.4691L194.55 30.7978C194.542 30.8046 194.533 30.8082 194.524 30.8082C194.515 30.8082 194.506 30.8046 194.498 30.7978L194.078 30.4691C194.062 30.4551 194.052 30.4341 194.052 30.4061V29.7488C194.052 29.7208 194.062 29.6998 194.078 29.6858L194.498 29.3572V29.3572Z" fill="#539E43"/>
<mask id="mask0" mask-type="alpha" maskUnits="userSpaceOnUse" x="180" y="26" width="5" height="8">
<path d="M182.624 26.3783C182.584 26.3473 182.538 26.3311 182.492 26.3311C182.445 26.3311 182.4 26.3473 182.36 26.3783L180.174 28.0775C180.091 28.1405 180.044 28.2594 180.044 28.3852V31.7911C180.044 31.9169 180.096 32.0358 180.174 32.0988L182.36 33.7982C182.4 33.8291 182.445 33.8454 182.492 33.8454C182.538 33.8454 182.584 33.8291 182.624 33.7982L184.81 32.0988C184.893 32.0358 184.94 31.9169 184.94 31.7911V28.3853C184.94 28.2594 184.888 28.1405 184.81 28.0776L182.624 26.3783Z" fill="white"/>
</mask>
<g mask="url(#mask0)">
<path d="M182.624 26.3783C182.584 26.3473 182.538 26.3311 182.492 26.3311C182.445 26.3311 182.4 26.3473 182.36 26.3783L180.174 28.0775C180.091 28.1405 180.044 28.2594 180.044 28.3852V31.7911C180.044 31.9169 180.096 32.0358 180.174 32.0988L182.36 33.7982C182.4 33.8291 182.445 33.8454 182.492 33.8454C182.538 33.8454 182.584 33.8291 182.624 33.7982L184.81 32.0988C184.893 32.0358 184.94 31.9169 184.94 31.7911V28.3853C184.94 28.2594 184.888 28.1405 184.81 28.0776L182.624 26.3783Z" fill="url(#paint0_linear)"/>
<path d="M184.816 28.0781L182.62 26.3787C182.599 26.364 182.576 26.3523 182.553 26.3438L180.092 32.0225C180.112 32.056 180.137 32.0844 180.165 32.1064L182.361 33.8058C182.423 33.8547 182.496 33.8687 182.563 33.8407L184.874 28.1481C184.858 28.1201 184.837 28.0991 184.816 28.0781V28.0781Z" fill="url(#paint1_linear)"/>
<path fill-rule="evenodd" clip-rule="evenodd" d="M184.821 32.099C184.883 32.0501 184.93 31.9661 184.95 31.8752L182.541 26.3364C182.479 26.3225 182.411 26.3294 182.354 26.3784L180.174 28.0708L182.526 33.8474C182.56 33.8398 182.593 33.8257 182.624 33.8054L184.821 32.0991L184.821 32.099Z" fill="url(#paint2_linear)"/>
<path fill-rule="evenodd" clip-rule="evenodd" d="M184.821 32.0989L182.63 33.7984C182.599 33.8196 182.566 33.8338 182.531 33.8403L182.573 33.9452L185.003 32.0501V32.0081L184.94 31.8682C184.93 31.9661 184.883 32.05 184.821 32.0989V32.0989Z" fill="url(#paint3_linear)"/>
<path fill-rule="evenodd" clip-rule="evenodd" d="M184.821 32.0989L182.63 33.7984C182.599 33.8196 182.566 33.8338 182.531 33.8403L182.573 33.9452L185.003 32.0501V32.0081L184.94 31.8682C184.93 31.9661 184.883 32.05 184.821 32.0989V32.0989Z" fill="url(#paint4_linear)"/>
</g>
</g>
<path d="M69.6667 228C71.4156 228 72.8333 226.657 72.8333 225C72.8333 223.343 71.4156 222 69.6667 222C67.9178 222 66.5 223.343 66.5 225C66.5 226.657 67.9178 228 69.6667 228Z" fill="#19BCFE"/>
<path fill-rule="evenodd" clip-rule="evenodd" d="M63.3337 234C64.1735 234 64.979 233.684 65.5728 233.121C66.1667 232.559 66.5003 231.796 66.5003 231V228H63.3337C62.4938 228 61.6884 228.316 61.0945 228.879C60.5006 229.441 60.167 230.204 60.167 231C60.167 231.796 60.5006 232.559 61.0945 233.121C61.6884 233.684 62.4938 234 63.3337 234V234Z" fill="#09CF83"/>
<path fill-rule="evenodd" clip-rule="evenodd" d="M63.3337 228H66.5003V222H63.3337C62.4938 222 61.6884 222.316 61.0945 222.879C60.5006 223.441 60.167 224.204 60.167 225C60.167 225.796 60.5006 226.559 61.0945 227.121C61.6884 227.684 62.4938 228 63.3337 228V228Z" fill="#A259FF"/>
<path fill-rule="evenodd" clip-rule="evenodd" d="M63.3337 222H66.5003V216H63.3337C62.4938 216 61.6884 216.316 61.0945 216.879C60.5006 217.441 60.167 218.204 60.167 219C60.167 219.796 60.5006 220.559 61.0945 221.121C61.6884 221.684 62.4938 222 63.3337 222V222Z" fill="#F24E1E"/>
<path fill-rule="evenodd" clip-rule="evenodd" d="M69.6667 222H66.5V216H69.6667C70.5065 216 71.312 216.316 71.9058 216.879C72.4997 217.441 72.8333 218.204 72.8333 219C72.8333 219.796 72.4997 220.559 71.9058 221.121C71.312 221.684 70.5065 222 69.6667 222Z" fill="#FF7262"/>
<defs>
<linearGradient id="paint0_linear" x1="183.382" y1="27.6451" x2="179.862" y2="31.7518" gradientUnits="userSpaceOnUse">
<stop stop-color="#41873F"/>
<stop offset="0.3288" stop-color="#418B3D"/>
<stop offset="0.6352" stop-color="#419637"/>
<stop offset="0.9319" stop-color="#3FA92D"/>
<stop offset="1" stop-color="#3FAE2A"/>
</linearGradient>
<linearGradient id="paint1_linear" x1="182.161" y1="30.4876" x2="188.845" y2="27.7917" gradientUnits="userSpaceOnUse">
<stop offset="0.1376" stop-color="#41873F"/>
<stop offset="0.4032" stop-color="#54A044"/>
<stop offset="0.7136" stop-color="#66B848"/>
<stop offset="0.9081" stop-color="#6CC04A"/>
</linearGradient>
<linearGradient id="paint2_linear" x1="179.964" y1="30.0885" x2="185.022" y2="30.0885" gradientUnits="userSpaceOnUse">
<stop offset="0.09192" stop-color="#6CC04A"/>
<stop offset="0.2864" stop-color="#66B848"/>
<stop offset="0.5968" stop-color="#54A044"/>
<stop offset="0.8624" stop-color="#41873F"/>
</linearGradient>
<linearGradient id="paint3_linear" x1="179.964" y1="32.9124" x2="185.022" y2="32.9124" gradientUnits="userSpaceOnUse">
<stop offset="0.09192" stop-color="#6CC04A"/>
<stop offset="0.2864" stop-color="#66B848"/>
<stop offset="0.5968" stop-color="#54A044"/>
<stop offset="0.8624" stop-color="#41873F"/>
</linearGradient>
<linearGradient id="paint4_linear" x1="185.759" y1="27.4842" x2="183.499" y2="36.2765" gradientUnits="userSpaceOnUse">
<stop stop-color="#41873F"/>
<stop offset="0.3288" stop-color="#418B3D"/>
<stop offset="0.6352" stop-color="#419637"/>
<stop offset="0.9319" stop-color="#3FA92D"/>
<stop offset="1" stop-color="#3FAE2A"/>
</linearGradient>
<clipPath id="clip0">
<rect width="21" height="19" fill="white" transform="translate(138 22)"/>
</clipPath>
<clipPath id="clip1">
<rect width="23" height="19" fill="white" transform="translate(174 22)"/>
</clipPath>
</defs>
</svg>
