<svg width="497" height="326" viewBox="0 0 497 326" fill="none" xmlns="http://www.w3.org/2000/svg">
<path d="M495.702 270H1.29765C0.953492 270 0.623448 269.895 0.380092 269.707C0.136735 269.52 0 269.265 0 269C0 268.735 0.136735 268.48 0.380092 268.293C0.623448 268.105 0.953492 268 1.29765 268H495.702C496.046 268 496.377 268.105 496.62 268.293C496.863 268.48 497 268.735 497 269C497 269.265 496.863 269.52 496.62 269.707C496.377 269.895 496.046 270 495.702 270Z" fill="#3F3D56"/>
<path d="M225.94 288L225 273.895L286.612 264L288 284.82L225.94 288Z" fill="#FFB8B8"/>
<path d="M228.151 263.866L229.932 289.838L210.631 290.8L207.728 248.474C210.263 248.348 212.801 248.646 215.2 249.351C217.598 250.056 219.808 251.155 221.705 252.584C223.601 254.013 225.146 255.745 226.252 257.681C227.358 259.617 228.003 261.718 228.151 263.866Z" fill="#293347"/>
<path d="M252 287.209L241.787 298L189 268.926L204.073 253L252 287.209Z" fill="#FFB8B8"/>
<path d="M230.837 302.805L250.336 282.584L265.273 293.048L233.497 326.001C231.536 324.626 229.911 322.936 228.716 321.027C227.52 319.117 226.778 317.026 226.531 314.872C226.284 312.718 226.537 310.544 227.276 308.473C228.015 306.403 229.225 304.477 230.837 302.805V302.805Z" fill="#293347"/>
<path d="M223.084 238.551L216.114 266.644C215.954 267.291 215.963 267.961 216.14 268.604C216.318 269.248 216.66 269.85 217.142 270.367C217.624 270.884 218.234 271.303 218.928 271.595C219.622 271.887 220.383 272.044 221.156 272.055L289.675 272.999C290.447 273.01 291.213 272.875 291.917 272.603C292.621 272.331 293.246 271.929 293.747 271.427C294.248 270.924 294.613 270.333 294.816 269.696C295.019 269.059 295.054 268.391 294.92 267.74L288.927 238.702C288.713 237.665 288.078 236.725 287.134 236.048C286.191 235.371 284.998 235 283.766 235H228.21C227.009 235 225.845 235.353 224.912 235.999C223.978 236.646 223.333 237.546 223.084 238.551V238.551Z" fill="#2F2E41"/>
<path d="M233.735 248.951C233.735 248.951 167.599 213.79 154.631 232.469C148.147 241.809 151.389 250.873 156.252 257.603C160.765 263.731 167.243 268.644 174.929 271.768L228.548 294L248 276.42L235.032 266.531L233.735 248.951Z" fill="#CCCCCC"/>
<path d="M270.138 242.687C270.138 242.687 355.645 221.12 338.803 261.985C321.96 302.85 258.478 286.958 258.478 286.958L252 269.931L274.025 256.309L270.138 242.687Z" fill="#CCCCCC"/>
<path d="M236.821 252.227C237.48 250.724 238.534 249.358 239.907 248.224C241.28 247.091 242.94 246.219 244.769 245.668C246.597 245.118 248.551 244.903 250.492 245.039C252.433 245.175 254.314 245.658 256.003 246.454L291.764 221L295 241.004L260.544 262.109C258.725 264.347 255.967 265.959 252.794 266.641C249.622 267.323 246.254 267.027 243.33 265.809C240.406 264.591 238.128 262.535 236.928 260.032C235.729 257.529 235.69 254.752 236.821 252.227V252.227Z" fill="#FFB8B8"/>
<path d="M267.439 255C266.906 255 266.376 254.926 265.866 254.783C265.037 254.556 264.278 254.146 263.652 253.587C263.027 253.027 262.553 252.335 262.27 251.569L258.317 241.037C257.947 240.064 257.9 239.008 258.182 238.009C258.464 237.01 259.062 236.115 259.897 235.443L304.523 210.252L286.932 136.462L287.379 136.361C287.561 136.319 305.585 132.462 312.97 150.98C318.142 163.95 337.282 192.151 335.932 211.207C335.675 215.019 334.06 218.639 331.347 221.481C328.633 224.323 324.98 226.223 320.977 226.873L270.745 253.933C269.799 254.623 268.636 254.998 267.439 255Z" fill="#293347"/>
<path d="M275.207 249.906C274.57 248.37 273.552 246.974 272.225 245.816C270.899 244.658 269.296 243.767 267.529 243.205C265.762 242.642 263.874 242.423 261.999 242.562C260.124 242.7 258.306 243.194 256.675 244.008L222.126 218L219 238.439L252.288 260.003C254.046 262.289 256.71 263.937 259.775 264.633C262.84 265.33 266.093 265.027 268.918 263.783C271.744 262.538 273.944 260.438 275.103 257.881C276.262 255.323 276.299 252.486 275.207 249.906V249.906Z" fill="#FFB8B8"/>
<path d="M243.096 251C241.967 250.998 240.87 250.636 239.978 249.969L189.161 226.024C185.385 225.396 181.939 223.56 179.38 220.813C176.82 218.067 175.296 214.569 175.054 210.885C173.781 192.469 195.269 163.011 200.148 150.477C207.114 132.581 224.116 136.307 224.287 136.349L224.71 136.447L204.682 209.962L250.21 232.1C250.998 232.75 251.562 233.615 251.828 234.58C252.095 235.546 252.05 236.566 251.701 237.507L247.972 247.684C247.705 248.425 247.258 249.094 246.668 249.634C246.078 250.174 245.362 250.571 244.581 250.79C244.099 250.929 243.599 251 243.096 251Z" fill="#293347"/>
<path d="M312.961 270H198.039C195.642 269.998 193.345 269.177 191.65 267.719C189.956 266.261 189.003 264.284 189 262.222V207.778C189.003 205.716 189.956 203.739 191.65 202.281C193.345 200.823 195.642 200.002 198.039 200H312.961C315.358 200.002 317.655 200.823 319.35 202.281C321.044 203.739 321.997 205.716 322 207.778V262.222C321.997 264.284 321.044 266.261 319.349 267.719C317.655 269.177 315.358 269.998 312.961 270Z" fill="#6C63FF"/>
<path d="M256.5 242C261.194 242 265 238.866 265 235C265 231.134 261.194 228 256.5 228C251.806 228 248 231.134 248 235C248 238.866 251.806 242 256.5 242Z" fill="white"/>
<path d="M41.9634 258.207C43.5912 243.39 48.0868 228.9 55.271 215.314C57.2733 211.533 59.4771 207.836 61.8825 204.222C62.0031 204.033 62.0322 203.811 61.9636 203.605C61.8949 203.398 61.7339 203.222 61.5145 203.113C61.2952 203.005 61.0346 202.973 60.7877 203.024C60.5408 203.075 60.327 203.205 60.1914 203.386C51.444 216.55 45.316 230.84 42.0521 245.684C41.1442 249.829 40.4618 254.003 40.005 258.207C39.8889 259.268 41.8481 259.261 41.9634 258.207V258.207Z" fill="#E6E6E6"/>
<path d="M66.5 206C73.4036 206 79 201.299 79 195.5C79 189.701 73.4036 185 66.5 185C59.5964 185 54 189.701 54 195.5C54 201.299 59.5964 206 66.5 206Z" fill="#38F99C"/>
<path d="M43.2494 258.476C44.2853 248.686 47.1462 239.112 51.7179 230.136C52.9921 227.638 54.3946 225.195 55.9253 222.807C56.002 222.682 56.0205 222.536 55.9768 222.399C55.9331 222.263 55.8306 222.146 55.6911 222.075C55.5515 222.003 55.3857 221.982 55.2286 222.016C55.0715 222.049 54.9355 222.135 54.8491 222.255C49.2826 230.953 45.3829 240.394 43.3059 250.202C42.7281 252.941 42.2939 255.699 42.0032 258.476C41.9293 259.177 43.1761 259.172 43.2495 258.476H43.2494Z" fill="#E6E6E6"/>
<path d="M59.5 226C63.6421 226 67 222.642 67 218.5C67 214.358 63.6421 211 59.5 211C55.3579 211 52 214.358 52 218.5C52 222.642 55.3579 226 59.5 226Z" fill="#38F99C"/>
<path d="M41.8956 258.106C35.9802 249.902 31.6211 240.89 28.9923 231.43C28.2622 228.796 27.6688 226.137 27.212 223.452C27.1856 223.313 27.0997 223.189 26.9723 223.106C26.8448 223.022 26.6859 222.986 26.529 223.005C26.3722 223.024 26.2297 223.096 26.1315 223.206C26.0334 223.316 25.9873 223.456 26.003 223.596C27.6732 233.371 31.1397 242.835 36.2638 251.61C37.6965 254.059 39.2532 256.447 40.9339 258.773C41.3574 259.36 42.3164 258.69 41.8956 258.106V258.106Z" fill="#E6E6E6"/>
<path d="M26 224C30.9706 224 35 220.866 35 217C35 213.134 30.9706 210 26 210C21.0294 210 17 213.134 17 217C17 220.866 21.0294 224 26 224Z" fill="#38F99C"/>
<path d="M17 263.071V249.929C17.0018 248.622 17.6302 247.369 18.7475 246.445C19.8647 245.521 21.3795 245.001 22.9595 245H60.0405C61.6205 245.001 63.1353 245.521 64.2525 246.445C65.3698 247.369 65.9982 248.622 66 249.929V263.071C65.9982 264.378 65.3698 265.631 64.2525 266.555C63.1353 267.479 61.6205 267.999 60.0405 268H22.9595C21.3795 267.999 19.8647 267.479 18.7475 266.555C17.6302 265.631 17.0018 264.378 17 263.071V263.071Z" fill="#F2F2F2"/>
<path d="M409 278.769C409 286.49 402.06 290 393.5 290C384.94 290 378 286.49 378 278.769C378 271.048 381.444 262.039 393.5 265.146C405.556 260.485 409 271.048 409 278.769Z" fill="#FF6584"/>
<path d="M392.408 269C391.781 269.001 391.176 268.804 390.705 268.447C390.234 268.09 389.929 267.596 389.849 267.059C389.315 263.221 386.374 255.704 385.135 252.651L385.134 252.65C385.009 252.346 384.971 252.021 385.022 251.702C385.074 251.383 385.215 251.079 385.432 250.817C385.64 250.583 385.903 250.39 386.204 250.25C386.504 250.11 386.836 250.027 387.176 250.005C387.516 249.984 387.858 250.026 388.179 250.127C388.5 250.228 388.792 250.387 389.037 250.592C389.255 250.79 389.424 251.025 389.533 251.282C389.642 251.539 389.689 251.812 389.67 252.085C389.427 256.004 392.732 262.337 394.724 265.764C394.912 266.087 395.007 266.445 395 266.806C394.992 267.168 394.883 267.522 394.682 267.84C394.481 268.157 394.194 268.427 393.846 268.627C393.497 268.827 393.097 268.951 392.681 268.987C392.591 268.996 392.499 269 392.408 269V269Z" fill="#3F3D56"/>
<path d="M404.426 260.758C410.083 256.778 405.645 248.633 398.566 250.197C397.613 250.392 396.735 250.795 396.016 251.366C391.673 254.893 391 263.916 391 263.916C391 263.916 398.668 264.81 404.426 260.758Z" fill="#3F3D56"/>
<g clip-path="url(#clip0)">
<mask id="mask0" mask-type="alpha" maskUnits="userSpaceOnUse" x="169" y="-13" width="173" height="213">
<path d="M169.766 108.861V-12.6582H341.67V108.861H333.856C333.856 159.196 298.872 200 255.718 200C212.563 200 177.579 159.196 177.579 108.861H169.766Z" fill="white"/>
</mask>
<g mask="url(#mask0)">
<mask id="mask1" mask-type="alpha" maskUnits="userSpaceOnUse" x="190" y="14" width="131" height="186">
<path d="M255.717 14.6836C275.856 14.6836 292.181 33.7257 292.181 57.2152L292.182 61.8983C295.877 62.6218 298.693 66.3705 298.693 70.8861V81.519C298.693 86.1158 295.775 89.9178 291.982 90.5429C290.637 105.585 282.569 118.295 271.345 124.514L271.344 138.481H273.949C299.842 138.481 320.832 162.964 320.832 193.165V200H190.602V193.165C190.602 162.964 211.592 138.481 237.485 138.481H240.089L240.089 124.515C228.865 118.296 220.797 105.585 219.451 90.5429C215.658 89.9178 212.741 86.1158 212.741 81.519V70.8861C212.741 66.3702 215.557 62.6213 219.252 61.8982L219.252 57.2152C219.252 33.7257 235.578 14.6836 255.717 14.6836Z" fill="white"/>
</mask>
<g mask="url(#mask1)">
<path d="M255.717 14.6836C275.856 14.6836 292.181 33.7257 292.181 57.2152L292.182 61.8983C295.877 62.6218 298.693 66.3705 298.693 70.8861V81.519C298.693 86.1158 295.775 89.9178 291.982 90.5429C290.637 105.585 282.569 118.295 271.345 124.514L271.344 138.481H273.949C299.842 138.481 320.832 162.964 320.832 193.165V200H190.602V193.165C190.602 162.964 211.592 138.481 237.485 138.481H240.089L240.089 124.515C228.865 118.296 220.797 105.585 219.451 90.5429C215.658 89.9178 212.741 86.1158 212.741 81.519V70.8861C212.741 66.3702 215.557 62.6213 219.252 61.8982L219.252 57.2152C219.252 33.7257 235.578 14.6836 255.717 14.6836Z" fill="#D0C6AC"/>
<path d="M342.237 14.6836H169.766V200.637H342.237V14.6836Z" fill="#FFDBB4"/>
<path fill-rule="evenodd" clip-rule="evenodd" d="M219.252 86.0762C219.252 109.566 235.578 128.608 255.716 128.608C275.855 128.608 292.181 109.566 292.181 86.0762V92.1521C292.181 115.642 275.855 134.684 255.716 134.684C235.578 134.684 219.252 115.642 219.252 92.1521V86.0762Z" fill="black" fill-opacity="0.1"/>
</g>
<mask id="mask2" mask-type="alpha" maskUnits="userSpaceOnUse" x="243" y="98" width="26" height="16">
<path d="M243.423 100.604C244.112 107.812 249.354 113.418 255.718 113.418C262.102 113.418 267.357 107.778 268.02 100.537C268.073 99.9539 267.515 98.9873 266.816 98.9873C257.117 98.9873 249.687 98.9873 244.705 98.9873C244.002 98.9873 243.354 99.8823 243.423 100.604Z" fill="white"/>
</mask>
<g mask="url(#mask2)">
<path d="M243.423 100.604C244.112 107.812 249.354 113.418 255.718 113.418C262.102 113.418 267.357 107.778 268.02 100.537C268.073 99.9539 267.515 98.9873 266.816 98.9873C257.117 98.9873 249.687 98.9873 244.705 98.9873C244.002 98.9873 243.354 99.8823 243.423 100.604Z" fill="black" fill-opacity="0.7"/>
<path fill-rule="evenodd" clip-rule="evenodd" d="M249.207 90.6328H262.881C264.679 90.6328 266.137 92.333 266.137 94.4303V98.9872C266.137 101.085 264.679 102.785 262.881 102.785H249.207C247.409 102.785 245.951 101.085 245.951 98.9872V94.4303C245.951 92.333 247.409 90.6328 249.207 90.6328Z" fill="white"/>
<path d="M252.461 124.051C256.417 124.051 259.624 120.31 259.624 115.696C259.624 111.082 256.417 107.342 252.461 107.342C248.506 107.342 245.299 111.082 245.299 115.696C245.299 120.31 248.506 124.051 252.461 124.051Z" fill="#FF4F6D"/>
<path d="M258.973 124.051C262.929 124.051 266.136 120.31 266.136 115.696C266.136 111.082 262.929 107.342 258.973 107.342C255.017 107.342 251.811 111.082 251.811 115.696C251.811 120.31 255.017 124.051 258.973 124.051Z" fill="#FF4F6D"/>
</g>
<path fill-rule="evenodd" clip-rule="evenodd" d="M247.904 86.0752C247.904 89.4308 251.403 92.1511 255.718 92.1511C260.034 92.1511 263.532 89.4308 263.532 86.0752" fill="black" fill-opacity="0.16"/>
<path fill-rule="evenodd" clip-rule="evenodd" d="M229.776 72.7444C230.979 69.8592 233.686 67.8477 236.833 67.8477C239.969 67.8477 242.668 69.845 243.877 72.7138C244.236 73.566 243.725 74.2635 243.21 73.7467C241.614 72.1462 239.347 71.1467 236.833 71.1467C234.397 71.1467 232.194 72.0847 230.608 73.5983C230.028 74.1517 229.425 73.5882 229.776 72.7444Z" fill="black" fill-opacity="0.6"/>
<path fill-rule="evenodd" clip-rule="evenodd" d="M267.544 72.7444C268.746 69.8592 271.453 67.8477 274.601 67.8477C277.737 67.8477 280.436 69.845 281.645 72.7138C282.004 73.566 281.493 74.2635 280.977 73.7467C279.381 72.1462 277.115 71.1467 274.601 71.1467C272.165 71.1467 269.962 72.0847 268.376 73.5983C267.795 74.1517 267.192 73.5882 267.544 72.7444Z" fill="black" fill-opacity="0.6"/>
<path fill-rule="evenodd" clip-rule="evenodd" d="M236.539 54.3084C232.759 54.5045 226.653 57.6977 226.817 62.1468C226.822 62.2925 227.006 62.3568 227.095 62.245C228.885 60.0004 241.614 57.7547 246.101 58.9678C246.511 59.079 246.823 58.607 246.562 58.2651C244.33 55.337 239.925 54.129 236.539 54.3084Z" fill="black" fill-opacity="0.6"/>
<path fill-rule="evenodd" clip-rule="evenodd" d="M275.549 54.3084C279.329 54.5045 285.435 57.6977 285.271 62.1468C285.266 62.2925 285.082 62.3568 284.993 62.245C283.203 60.0004 270.474 57.7547 265.987 58.9678C265.577 59.079 265.265 58.607 265.526 58.2651C267.758 55.337 272.163 54.129 275.549 54.3084Z" fill="black" fill-opacity="0.6"/>
<mask id="mask3" mask-type="alpha" maskUnits="userSpaceOnUse" x="169" y="-13" width="173" height="213">
<path d="M341.67 -12.6582H169.766V200H341.67V-12.6582Z" fill="white"/>
</mask>
<g mask="url(#mask3)">
<mask id="mask4" mask-type="alpha" maskUnits="userSpaceOnUse" x="217" y="0" width="77" height="63">
<path d="M286.346 17.6608C284.549 15.5191 282.463 13.7012 280.433 11.8782C279.986 11.4763 279.531 11.0841 279.093 10.667C278.993 10.5722 277.974 9.72058 277.852 9.40715C277.558 8.65313 277.728 9.24024 277.769 8.34046C277.82 7.20268 279.809 3.98912 278.325 3.25218C277.672 2.92804 276.507 3.79062 275.881 4.07551C274.656 4.63306 273.416 5.10856 272.149 5.51856C272.756 4.10838 273.913 1.28546 271.738 2.04101C270.044 2.62965 268.466 4.14303 266.763 4.85501C267.327 3.77813 269.579 0.441234 267.544 0.254704C266.91 0.196605 265.067 1.58233 264.386 1.87792C262.343 2.76343 260.257 3.33576 258.112 3.78654C250.821 5.31929 242.294 4.88227 235.548 8.7543C230.347 11.7393 225.211 16.3709 222.207 22.2688C219.311 27.9536 218.228 34.1751 217.622 40.6894C217.177 45.4701 217.141 50.4118 217.349 55.2099C217.417 56.7819 217.568 64.0283 219.526 61.8337C220.502 60.7403 220.495 56.325 220.74 54.8305C221.229 51.8569 221.7 48.8702 222.515 45.9917C223.952 40.9192 225.646 38.5539 229.225 35.0603C231.522 32.8187 233.135 29.7888 235.332 27.5273C236.32 26.5116 235.566 26.6173 237.154 26.7506C238.22 26.84 239.291 26.8742 240.36 26.9068C242.831 26.9817 245.307 26.9626 247.78 26.9728C252.759 26.9937 257.715 27.0757 262.689 26.7717C264.9 26.6367 267.116 26.5635 269.321 26.325C270.553 26.1918 272.738 25.2711 273.752 25.9747C274.68 26.6183 275.643 28.7201 276.31 29.5809C277.884 31.6151 279.76 33.1688 281.601 34.8369C285.439 38.3149 287.377 39.6454 288.542 45.0807C289.704 50.4959 289.378 55.5199 290.815 60.849C291.068 61.786 291.737 63.401 292.562 61.9534C292.715 61.6845 292.675 60.2066 292.675 59.3562C292.675 55.9235 293.421 53.3479 293.411 49.8928C293.375 39.3875 293.083 25.689 286.346 17.6608Z" fill="white"/>
</mask>
<g mask="url(#mask4)">
<path d="M286.346 17.6608C284.549 15.5191 282.463 13.7012 280.433 11.8782C279.986 11.4763 279.531 11.0841 279.093 10.667C278.993 10.5722 277.974 9.72058 277.852 9.40715C277.558 8.65313 277.728 9.24024 277.769 8.34046C277.82 7.20268 279.809 3.98912 278.325 3.25218C277.672 2.92804 276.507 3.79062 275.881 4.07551C274.656 4.63306 273.416 5.10856 272.149 5.51856C272.756 4.10838 273.913 1.28546 271.738 2.04101C270.044 2.62965 268.466 4.14303 266.763 4.85501C267.327 3.77813 269.579 0.441234 267.544 0.254704C266.91 0.196605 265.067 1.58233 264.386 1.87792C262.343 2.76343 260.257 3.33576 258.112 3.78654C250.821 5.31929 242.294 4.88227 235.548 8.7543C230.347 11.7393 225.211 16.3709 222.207 22.2688C219.311 27.9536 218.228 34.1751 217.622 40.6894C217.177 45.4701 217.141 50.4118 217.349 55.2099C217.417 56.7819 217.568 64.0283 219.526 61.8337C220.502 60.7403 220.495 56.325 220.74 54.8305C221.229 51.8569 221.7 48.8702 222.515 45.9917C223.952 40.9192 225.646 38.5539 229.225 35.0603C231.522 32.8187 233.135 29.7888 235.332 27.5273C236.32 26.5116 235.566 26.6173 237.154 26.7506C238.22 26.84 239.291 26.8742 240.36 26.9068C242.831 26.9817 245.307 26.9626 247.78 26.9728C252.759 26.9937 257.715 27.0757 262.689 26.7717C264.9 26.6367 267.116 26.5635 269.321 26.325C270.553 26.1918 272.738 25.2711 273.752 25.9747C274.68 26.6183 275.643 28.7201 276.31 29.5809C277.884 31.6151 279.76 33.1688 281.601 34.8369C285.439 38.3149 287.377 39.6454 288.542 45.0807C289.704 50.4959 289.378 55.5199 290.815 60.849C291.068 61.786 291.737 63.401 292.562 61.9534C292.715 61.6845 292.675 60.2066 292.675 59.3562C292.675 55.9235 293.421 53.3479 293.411 49.8928C293.375 39.3875 293.083 25.689 286.346 17.6608Z" fill="#1F3140"/>
<path d="M342.688 -12.6582H169.693V200.343H342.688V-12.6582Z" fill="#4A312C"/>
</g>
</g>
</g>
<mask id="mask5" mask-type="alpha" maskUnits="userSpaceOnUse" x="189" y="125" width="133" height="76">
<path d="M271.292 125.604C283.2 127.162 292.345 131.447 292.345 142.539L292.341 142.206C309.355 150.612 321.295 170.311 321.295 193.272V200.199H189.705V193.272C189.705 170.311 201.645 150.612 218.659 142.206C218.839 131.361 227.92 127.147 239.709 125.604L239.709 140.171C239.709 150.372 246.779 158.641 255.5 158.641C264.221 158.641 271.291 150.372 271.291 140.171L271.292 125.604Z" fill="white"/>
</mask>
<g mask="url(#mask5)">
<path d="M271.292 125.604C283.2 127.162 292.345 131.447 292.345 142.539L292.341 142.206C309.355 150.612 321.295 170.311 321.295 193.272V200.199H189.705V193.272C189.705 170.311 201.645 150.612 218.659 142.206C218.839 131.361 227.92 127.147 239.709 125.604L239.709 140.171C239.709 150.372 246.779 158.641 255.5 158.641C264.221 158.641 271.291 150.372 271.291 140.171L271.292 125.604Z" fill="#B7C1DB"/>
<path d="M343 115.545H168.65V200.2H343V115.545Z" fill="#293347"/>
<path fill-rule="evenodd" clip-rule="evenodd" d="M235.762 163.057L235.763 200.199H231.157L231.156 160.295C232.606 161.303 234.148 162.228 235.762 163.057ZM279.846 160.295L279.845 191.348C279.845 192.836 278.814 194.042 277.542 194.042C276.271 194.042 275.24 192.836 275.24 191.348L275.24 163.057C276.855 162.227 278.396 161.303 279.846 160.295Z" fill="#F4F4F4"/>
<path fill-rule="evenodd" clip-rule="evenodd" d="M282.5 125.336C292.404 127.527 299.253 131.892 299.253 140.407C299.253 155.578 277.516 167.876 255.5 167.876C233.483 167.876 211.746 155.578 211.746 140.407C211.746 131.892 218.596 127.527 228.499 125.336C222.521 127.913 218.655 132.247 218.655 139.46C218.655 155.154 236.959 167.876 255.5 167.876C274.04 167.876 292.345 155.154 292.345 139.46C292.345 132.398 288.638 128.096 282.871 125.499L282.5 125.336Z" fill="black" fill-opacity="0.16"/>
</g>
</g>
<defs>
<clipPath id="clip0">
<rect width="157" height="200" fill="white" transform="translate(177)"/>
</clipPath>
</defs>
</svg>
